<svg width="1440" height="21" viewBox="0 0 1440 21" fill="none" xmlns="http://www.w3.org/2000/svg" preserveAspectRatio="xMidYMin slice">
<path d="M74 0H80L77 3L74 0Z" fill="currentColor"></path>
<path d="M308.5 5L311.5 2H302.5L299.5 5H308.5Z" fill="currentColor"></path>
<path d="M677.5 8H672.5L675 5.5L677.5 8Z" fill="currentColor"></path>
<path d="M447 7L449.5 4.5L447 2L444.5 4.5L447 7Z" fill="currentColor"></path>
<path d="M955 4L958 7H952L955 4Z" fill="currentColor"></path>
<path d="M955 4L958 1H952L955 4Z" fill="currentColor"></path>
<path d="M1109 7L1111 5V10H1109V7Z" fill="currentColor"></path>
<path d="M1275 7L1280 2H1277L1272 7H1275Z" fill="currentColor"></path>
<path d="M1329 10L1326 13L1323 10H1326H1329Z" fill="currentColor"></path>
<path d="M1326 10L1323 7H1329L1326 10Z" fill="currentColor"></path>
<path d="M154.5 7H160.5L157.5 10L154.5 7Z" fill="currentColor"></path>
<path fill-rule="evenodd" clip-rule="evenodd" d="M0 21V0L9.9647 10H49.5L55 15.5H73L88.4647 0H125.97L135.935 10H154.5L157.5 13L160.5 10H312.803L322.803 0L342.786 20L352.786 10H450L454 6L462 14L466 10H679.5L689.5 20L709.5 0H747.5L757.5 10H961L963 12L965 10L967 8L969 10H988.5L998.5 0H1039.5L1054.5 15H1074L1079 20L1089 10H1109V15L1111 13V10H1281.5L1291.5 0L1311.5 20H1328.5L1338.5 10H1423L1426 7L1429 10H1440V21H0ZM462 14L458 18H466L462 14ZM674 13C674 12.4477 674.448 12 675 12C675.552 12 676 12.4477 676 13C676 13.5523 675.552 14 675 14C674.448 14 674 13.5523 674 13ZM1426 10L1429 13H1423L1426 10ZM677 14C676.448 14 676 14.4477 676 15C676 15.5523 676.448 16 677 16C677.552 16 678 15.5523 678 15C678 14.4477 677.552 14 677 14ZM672 15C672 14.4477 672.448 14 673 14C673.552 14 674 14.4477 674 15C674 15.5523 673.552 16 673 16C672.448 16 672 15.5523 672 15Z" fill="currentColor"></path>
</svg>