<?xml version="1.0" encoding="utf-8"?>
<!-- Generator: Adobe Illustrator 22.0.0, SVG Export Plug-In . SVG Version: 6.00 Build 0)  -->
<svg version="1.1" id="Layer_1" xmlns="http://www.w3.org/2000/svg" xmlns:xlink="http://www.w3.org/1999/xlink" x="0px" y="0px"
	 viewBox="0 0 196 247" style="enable-background:new 0 0 196 247;" xml:space="preserve">
<style type="text/css">
	.st0{fill:#858585;}
	.st1{fill:#595959;}
	.st2{fill:#333333;}
	.st3{fill:#808080;}
	.st4{fill:none;}
	.st5{fill:none;stroke:#000000;stroke-width:2.5;stroke-miterlimit:10;}
	.st6{fill:none;stroke:#000000;stroke-width:2;stroke-miterlimit:10;}
	.st7{fill:none;stroke:#000000;stroke-miterlimit:10;}
	.st8{fill:none;stroke:#000000;stroke-width:2.34;stroke-miterlimit:10;}
	.st9{fill:#FFFFFF;stroke:#000000;stroke-width:2.26;stroke-miterlimit:10;}
	.st10{fill:#FF8E00;}
	.st11{fill:#F19122;stroke:#000000;stroke-width:2.5;stroke-miterlimit:10;}
	.st12{fill:#595959;stroke:#000000;stroke-width:0.75;stroke-miterlimit:10;}
	.st13{fill:#FFFFFF;stroke:#000000;stroke-width:2;stroke-miterlimit:10;}
	.st14{fill:#B1B1B1;}
	.st15{fill:#F3F3F3;}
	.st16{fill:none;stroke:#000000;stroke-width:3;stroke-linecap:round;stroke-miterlimit:10;}
	.st17{stroke:#000000;stroke-width:0.45;stroke-miterlimit:10;}
	.st18{stroke:#000000;stroke-width:2.02;stroke-miterlimit:10;}
	.st19{fill:#F19122;}
	.st20{fill:#101111;}
	.st21{fill:none;stroke:#000000;stroke-width:2.45;stroke-miterlimit:10;}
	.st22{fill:#191919;stroke:#000000;stroke-width:2.5;stroke-miterlimit:10;}
</style>
<title>testAsset 1</title>
<g id="Layer_2_1_">
	<g id="Layer_1-2">
		<g id="Happy_Face">
			<path class="st0" d="M137.1,95.3c1.6-0.4,3.1-0.7,4.6-0.9l0.5,0.5c-0.6-0.1-1.2-0.1-1.9,0C139.3,95,138.2,95.2,137.1,95.3z"/>
			<path class="st1" d="M141.7,94.4c-1.4,0.2-3,0.5-4.6,0.9s-3.2,0.6-4.9,1.1h0.1h-0.1c-0.7,0.2-1.3,0.4-2,0.6
				c3.1-1.2,6.2-2.6,9.1-4.2C140.2,93.2,141,93.8,141.7,94.4z"/>
			<path class="st1" d="M167.4,115.7L167.4,115.7L167.4,115.7z"/>
			<path class="st1" d="M188.2,131.5c-0.5-3.1-1.9-5.5-3.2-5.3h-0.1c0.2-1.2,0.3-2.4,0.3-3.6c0.3-0.2,0.6-0.4,0.9-0.4
				c2.2-0.3,4.6,3.7,5.4,9c0.2,1.4,0.3,2.9,0.2,4.3l-3.3-2.1C188.3,132.7,188.3,132.1,188.2,131.5z"/>
			<path class="st2" d="M186.7,137.5c1-0.1,1.7-1.9,1.7-4.2l3.3,2.1c-0.2,3.3-1.2,5.7-2.8,5.9c-2.2,0.3-4.6-3.7-5.4-9c0,0,0,0,0-0.1
				C184,135.3,185.4,137.7,186.7,137.5z"/>
			<path class="st1" d="M185.2,122.6c0,1.2-0.1,2.4-0.3,3.6c-1.1,0.3-1.7,2.5-1.5,5.3l0,0C183,127.3,183.7,123.8,185.2,122.6z"/>
			<path class="st1" d="M183.4,131.5C183.4,131.5,183.4,131.5,183.4,131.5L183.4,131.5C183.4,131.5,183.4,131.5,183.4,131.5z"/>
			<path class="st3" d="M183.5,132.2c0-0.2-0.1-0.4-0.1-0.6C183.4,131.8,183.5,132,183.5,132.2C183.5,132.2,183.5,132.2,183.5,132.2
				z"/>
			<path class="st2" d="M184.9,126.2c-0.3,1.8-0.8,3.6-1.5,5.3C183.2,128.7,183.8,126.5,184.9,126.2z"/>
			<path class="st2" d="M184.9,126.2h0.1c1.3-0.2,2.7,2.2,3.2,5.3c0.1,0.6,0.1,1.2,0.1,1.9l-0.2-0.1l0.2,0.1c0,2.3-0.6,4-1.7,4.2
				c-1.3,0.2-2.7-2.2-3.2-5.3l-0.1-0.7c0,0,0-0.1,0-0.1C184.1,129.8,184.6,128,184.9,126.2z"/>
			<path class="st3" d="M158.1,181.9c0,0.2-0.7,0.3-1.6,0.2c0.6-0.5,1.2-1,1.8-1.5l-0.1,0.8L158.1,181.9L158.1,181.9z"/>
			<path class="st3" d="M161.5,159.7v0.1c-2.3,0.8-4.7,1.3-7.1,1.6v-0.1C156.9,161.1,159.2,160.5,161.5,159.7z"/>
			<path class="st3" d="M153.3,161.5L153.3,161.5c-2.5,0.3-5,0.4-7.5,0.4l0,0C148.3,161.9,150.8,161.8,153.3,161.5z"/>
			<path d="M159.1,150.9c1,0,1.8,1.4,1.7,3.1s-0.9,3-1.9,3s-1.8-1.4-1.7-3.1S158.1,150.9,159.1,150.9z"/>
			<path d="M184.8,158.4c0.8,0,1.4,1.2,1.4,2.6s-0.8,2.5-1.6,2.4s-1.4-1.2-1.4-2.6S183.9,158.3,184.8,158.4z"/>
			<path d="M179,129.2c0.3,1.5-0.2,2.9-1.1,3c-0.1,0-0.2,0-0.4,0c0.2-1.8,0-3.7-0.4-5.5C177.9,126.8,178.7,127.8,179,129.2z"/>
			<path d="M177.4,132.2c-1-0.4-1.7-1.4-1.8-2.4c-0.3-1.5,0.2-2.9,1.1-3c0.1,0,0.2,0,0.3,0C177.5,128.6,177.6,130.4,177.4,132.2z"/>
			<path d="M164.7,92.4c0.9-0.3,2.1,0.8,2.5,2.3s0.1,3.1-0.8,3.3s-2.1-0.8-2.5-2.3S163.8,92.7,164.7,92.4z"/>
			<path d="M103.4,96.3c1.8-0.2,3.4,1.1,3.6,2.9c0.2,1.8-1.1,3.4-2.9,3.6c-1.8,0.2-3.4-1.1-3.6-2.9
				C100.3,98.1,101.6,96.5,103.4,96.3C103.4,96.3,103.4,96.3,103.4,96.3z"/>
			<path d="M158.1,76c-1.3,0-2.3-1.1-2.3-2.3c-0.2-1,0.2-1.9,1-2.5c0.8,0.1,1.7,0.3,2.5,0.5c0.4,0.4,0.6,1,0.6,1.5
				C160.2,74.5,159.4,75.7,158.1,76z"/>
			<path class="st4" d="M175.1,73.8c-0.4-0.3-0.8-0.5-1.2-0.7c-5.4-3.1-16.8-9.4-19.8-13.1c-3.4-4.3-10.8-1.9-20.1,2.1
				c0.1-5.8,3.7-9.9,4.5-15.4l-8.9-2.6c3.4-4,6.9-7.1,11-11.6c5.3-5.8,10.6-8.6,16.5-13.9c3.6-3.2,16.1-19.2,20.9-11.7
				c3.9,5.9,2.8,12.5,3.8,19.2c0.5,3.2,1.6,4.2,2.6,7.3c0.2,0.7,0.4,1.3,0.6,2c-0.7,0.5-1.3,1.3-1.6,2.1c-1,2.9,0.9,6.3,4.4,7.9
				c0.1,0.7,0.1,1.4,0.1,2.1c-0.2,6.8-2.6,12.7-5.1,19.4c-1.8,4.8-2.6,6.8-4.7,9c-0.6-0.5-1.1-0.9-1.8-1.3
				C176.2,74.4,175.7,74.1,175.1,73.8z"/>
			<path class="st4" d="M22.5,142.3c2.5-3.4-4.3-19.5-5.1-24.4c-2.2-13.1-0.7-24.3,9.5-33.4c8.5-7.5,8.4-19,18.6-25.8
				c8.5-5.6,38.6-18.5,45.7-6.4c4-6.3,11.2-8,19-8.3l-40,42.7l2.8,13.3l11.1,53l3.9,18.5c-5.9-0.8-11.9-0.7-17.8,0.3
				c-8-2.6-8.6,7.4-14.7,2.5c-3.9,0.4-14.9-1.3-19.4,1c-3.5,2.1-20.5-19.7-22.8-16.3C14.9,153.3,18.6,147.7,22.5,142.3z"/>
			<path class="st4" d="M174,73.1c0.4,0.2,0.8,0.4,1.2,0.7L174,73.1z"/>
			<path class="st0" d="M111.3,150.9l-2.7,0.1l2.7-0.2C111.3,150.8,111.3,150.9,111.3,150.9z"/>
			<path d="M157.6,70.9c0.7,0,1.3,0.3,1.7,0.8c-0.8-0.2-1.6-0.4-2.5-0.5C157.1,71,157.3,70.9,157.6,70.9z"/>
			<path class="st4" d="M184.8,158.4c0.8,0,1.4,1.2,1.4,2.6s-0.8,2.5-1.6,2.4s-1.4-1.2-1.4-2.6S183.9,158.3,184.8,158.4z"/>
			<g id="LINKY">
				<path class="st5" d="M98.1,220.3"/>
				<path class="st5" d="M175.1,73.8c6.1,4.1,11.2,11.3,11.6,20.2c0.3,6.7-3.4,15.2-0.9,22.6c4.7,2.4,8.2,8.2,8.8,14.8
					c0.8,8.2-2.4,12.8-4.6,15.1c-1.3,5.8,0.2,28.3-6,32.8c-9.2,6.7-32.9,35.6-42.8,43.8"/>
				<path class="st5" d="M154.1,59.9"/>
				<path class="st5" d="M134,62"/>
				<path class="st5" d="M138.5,46.6"/>
				<path class="st5" d="M122.5,42"/>
				<path class="st5" d="M111.5,42.6"/>
				<path class="st5" d="M70.1,86.8"/>
				<path class="st5" d="M161.4,81.4c0.5-5.8,6.9-12.9,14.2-7.5"/>
				<path d="M182.3,132.4c-0.3-2-0.3-4,0-6c0.1-1,0.4-2,0.9-3c0.3-0.5,0.6-1,1-1.5c0.5-0.5,1.1-0.9,1.8-1c0.7-0.1,1.4,0.1,2,0.5
					c0.5,0.3,0.9,0.7,1.3,1.2c0.6,0.8,1.2,1.7,1.6,2.7c1.5,3.6,2.1,7.6,1.7,11.5c-0.1,1-0.4,2-0.7,3c-0.2,0.5-0.5,1-0.9,1.5
					c-0.5,0.5-1.1,0.9-1.8,1c-0.7,0.1-1.4-0.1-2-0.4c-0.5-0.3-1-0.7-1.4-1.1c-0.7-0.8-1.3-1.7-1.7-2.6
					C183.2,136.3,182.6,134.4,182.3,132.4z"/>
				<path d="M184.5,132c0.1,1,0.4,2,0.8,2.9c0.2,0.4,0.4,0.8,0.7,1.2c0.1,0.2,0.4,0.4,0.6,0.5c0.1,0,0.4-0.2,0.5-0.6
					c0.2-0.4,0.3-0.9,0.4-1.4c0.1-1,0.1-2.1,0-3.1c-0.2-1-0.5-2-0.9-3c-0.2-0.4-0.5-0.8-0.8-1.2c-0.3-0.3-0.6-0.5-0.7-0.4
					c-0.2,0.2-0.4,0.4-0.4,0.6c-0.2,0.4-0.3,0.9-0.3,1.4C184.3,130,184.3,131,184.5,132z M182.5,132.3c-0.2-1.2-0.2-2.4,0-3.6
					c0.1-0.6,0.3-1.3,0.6-1.8c0.2-0.3,0.4-0.6,0.6-0.9c0.3-0.3,0.8-0.6,1.2-0.7c0.5,0,0.9,0.1,1.3,0.3c0.3,0.2,0.6,0.4,0.8,0.7
					c0.4,0.5,0.7,1,0.9,1.6c0.5,1.1,0.8,2.2,0.9,3.4c0.2,1.2,0.2,2.3,0.1,3.5c-0.1,0.6-0.2,1.2-0.4,1.8c-0.1,0.3-0.3,0.7-0.6,0.9
					c-0.3,0.4-0.7,0.6-1.2,0.7c-0.5,0.1-0.9,0-1.4-0.3c-0.3-0.2-0.6-0.4-0.9-0.7c-0.4-0.5-0.7-1-1-1.6
					C183,134.6,182.7,133.5,182.5,132.3L182.5,132.3z"/>
				<path class="st6" d="M90.3,97.2c20.2-4.8,58.5-29,74-13.3s-0.5,43.3-9.4,49.7c-7.9,1.5-14.2,1.5-21.3,2.3"/>
				<path d="M134,94.9c2-0.6,4-1,6-1.4c2-0.4,4.1-0.6,6.2-0.7c2.1-0.1,4.2,0,6.3,0.3c2.1,0.3,4.2,1.1,6.1,2.1
					c1.9,1.1,3.5,2.6,4.7,4.4c1.2,1.8,1.9,3.9,2.2,6c0.5,4.1,0,8.3-1.5,12.2c0.8-4,0.9-8,0.1-12c-0.7-3.8-3.1-7.1-6.5-9
					c-1.7-0.9-3.6-1.5-5.5-1.7c-1.9-0.3-3.9-0.4-5.9-0.3c-4,0.3-7.9,1-11.8,2L134,94.9z"/>
				<path class="st6" d="M140.4,94.8c-9.3,0.9-18.3,5-30.5,9c-5.9,2-17.3,3.2-16.5,9.5c0.7,5.8,7.1,15.3,11.5,18.8
					c7,5.5,24.7,4.9,37,2.4c6.9-1.4,12-6.7,14.7-12C165,105.8,148.4,94,140.4,94.8z"/>
				<path class="st5" d="M167.5,115.6c0,0,13.1-1.9,18.3,1"/>
				<path class="st5" d="M190,146.5c-4.9,4.8-7.6,7.2-12.2,9.4c-5.2,2.5-12,4.6-15.2,3.4"/>
				<path class="st6" d="M168.6,158.6c-0.1,4.8,3.1,13.5-4.8,18.4c-3.7,2.2-10.9,9-17.6,15.5"/>
				<path class="st6" d="M134.4,173.8"/>
				<path class="st6" d="M139.2,161.1"/>
				<path class="st6" d="M133.4,153.6"/>
				<path class="st6" d="M154.8,133.5c0,0,6.9,7.6,8.6,10.5s0.6,6.7-0.8,15.3c-4.2,2.3-14,3.4-21.4,2.3"/>
				<path d="M174.7,159.7c0.6,2.1,1,4.2,1.3,6.3c0.3,2.2,0.1,4.4-0.7,6.5c-0.4,1.1-1.1,2-1.9,2.8c-0.4,0.4-0.9,0.8-1.3,1.1
					c-0.4,0.3-0.9,0.6-1.3,0.9c-1.7,1.3-3.3,2.6-4.9,4s-3.2,2.8-4.7,4.3s-3.1,2.9-4.6,4.4c-3.1,2.9-6,6-8.7,9.2l-0.8-0.6
					c2.6-3.4,5.5-6.6,8.5-9.6c3-3,6.2-5.9,9.4-8.7c1.6-1.4,3.3-2.7,5-4c0.4-0.3,0.9-0.6,1.3-0.9c0.4-0.3,0.8-0.6,1.2-0.9
					c0.7-0.7,1.3-1.5,1.7-2.4c0.8-1.9,1.1-4,1-6C175.2,163.9,175,161.8,174.7,159.7z"/>
				<path d="M157.2,153.9c-0.1,1.7,0.7,3.1,1.7,3.1s1.9-1.3,1.9-3s-0.7-3.1-1.7-3.1S157.3,152.2,157.2,153.9z"/>
				<path d="M183.1,160.7c-0.1,1.4,0.5,2.5,1.4,2.6s1.6-1.1,1.6-2.4s-0.5-2.5-1.4-2.6S183.2,159.3,183.1,160.7z"/>
				<path d="M175.7,129.7c0.3,1.5,1.2,2.6,2.1,2.5s1.4-1.5,1.1-3s-1.2-2.6-2.1-2.5S175.4,128.2,175.7,129.7z"/>
				<path d="M163.9,95.7c0.5,1.6,1.6,2.6,2.5,2.3s1.3-1.8,0.8-3.3s-1.6-2.6-2.5-2.3S163.4,94.1,163.9,95.7z"/>
				<path d="M100.5,99.8c0.2,1.8,1.8,3.1,3.6,2.9c1.8-0.2,3.1-1.8,2.9-3.6c-0.2-1.8-1.8-3.1-3.6-2.9c0,0,0,0,0,0
					C101.6,96.4,100.3,98,100.5,99.8C100.5,99.8,100.5,99.8,100.5,99.8z"/>
				<path d="M155.8,73.6c0.4,1.1,1.6,1.7,2.7,1.3c1.1-0.4,1.7-1.6,1.3-2.7c-0.3-0.9-1.2-1.5-2.2-1.4
					C156.3,71.1,155.5,72.4,155.8,73.6z"/>
				<path class="st6" d="M168.9,73c9.7,9,14.1,19.8,11.8,32.2c-0.4,2.3-0.1,4.8,0.2,9.6"/>
				<path class="st0" d="M147.8,170.6l-0.4-0.1L147.8,170.6C147.8,170.5,147.8,170.6,147.8,170.6z"/>
				<path class="st0" d="M147.4,170.4l-0.7-0.2C147,170.3,147.2,170.3,147.4,170.4z"/>
				<path class="st7" d="M146.7,170.2c0.8,0.3,1.7,0.4,2.6,0.4l-5.1,15.4l0,0c-0.1,0.3-1.3,0.2-2.6-0.3s-2.3-1-2.2-1.3l5.1-15.4
					C145.1,169.5,145.9,169.9,146.7,170.2z"/>
				<path class="st7" d="M152.3,185.4l0.4-3.8c0-0.2,0.3-0.4,0.7-0.5v0.3h0c0,0.2,1,0.5,2.3,0.7s2.4,0.1,2.4-0.2l0,0v-0.4"/>
				<path class="st7" d="M158.5,186"/>
				<path class="st7" d="M153.5,181l1.5-14.8c0.7,0.3,1.5,0.4,2.3,0.5c0.8,0.1,1.6,0.1,2.4,0l-1.5,14.7v0.4l0,0
					c0,0.2-1.1,0.3-2.4,0.2s-2.3-0.4-2.3-0.7l0,0L153.5,181z"/>
				<path class="st7" d="M154.4,161.4c2.4-0.3,4.8-0.9,7.1-1.8l-0.7,6.4c0,0.3-0.5,0.5-1.2,0.6c-0.8,0.1-1.6,0.1-2.4,0
					c-0.8-0.1-1.6-0.3-2.3-0.5c-0.6-0.3-1-0.6-1-0.8L154.4,161.4z"/>
				<path class="st7" d="M143.8,167.8l2-6c2.5,0.1,5,0,7.5-0.3l-2.8,8.5c-0.1,0.3-0.6,0.5-1.2,0.6c-0.9,0-1.7-0.1-2.6-0.4
					c-0.8-0.3-1.6-0.7-2.3-1.2C143.9,168.6,143.7,168.2,143.8,167.8z"/>
			</g>
			<path class="st0" d="M172.7,184.2"/>
			<path class="st8" d="M52.2,51.8c-2-7.1-7.1-13.5-13.1-17.9c-5.2-3.8-11.9-4.9-18.1-6.4c-4.2-1-14.5-6.3-18.5-3.4
				C-0.7,26.4,2.9,37,3.1,40.3C3.6,46.9,3,53.5,4.8,59.9C7.4,69,18.9,80.6,16.8,91.4"/>
			<path class="st9" d="M44.3,56.7"/>
			<path class="st9" d="M22.3,84.6c-3.6-9.9-9.5-17-12.1-22.1c-1.3-2.5-1.5-8.4-1.5-10c0-2.8,0.8-6.1,0.4-10.3
				c-0.3-2.9-2-7.2-2.4-10c-0.2-1.7,1.6-1.3,2-1c12,8.1,19.6,7.8,26.8,10.8c3.3,1.4,1,6.4,4,8.5c1.4,1.1,2.7,2.5,3.6,4"/>
			<path class="st4" d="M78.7,95.9c6-0.9,11.9-2.4,17.7-4.3C91.8,93.1,85.1,95.6,78.7,95.9z"/>
			<path class="st10" d="M102.4,89.4l-0.2,0.2c-2.8,1.3-5.4,2.8-8,4.4c0.7-0.8,1.4-1.6,2.2-2.5C100,90.4,102.4,89.4,102.4,89.4z"/>
			<path class="st5" d="M20.3,138.6c2.5-3.4-4.3-19.5-5.1-24.4c-2.2-13.1-0.7-24.3,9.5-33.4c8.5-7.5,8.4-19,18.6-25.8
				c8.5-5.6,38.5-18.5,45.7-6.4C96.3,37.3,113.5,41,127,41c3.6-4.3,7.3-7.5,11.6-12.2c5.3-5.8,10.6-8.6,16.5-13.9
				c3.6-3.2,16-19.2,20.9-11.7c3.9,5.9,2.8,12.5,3.8,19.2c0.5,3.2,1.6,4.2,2.6,7.3c0.2,0.7,0.4,1.3,0.6,2c-0.7,0.5-1.3,1.3-1.6,2.1
				c-1,2.9,0.9,6.3,4.4,7.9c0.1,0.7,0.1,1.4,0.1,2.1c-0.2,6.8-2.6,12.7-5.1,19.4c-2.2,5.8-2.9,7.5-6.1,10.3
				c-6.9-2.6-6.1,1.4-10.5,1.9c-0.9-11-18.8-7.8-26.1-8.3c-2.4-0.2-10-7-10-7c-0.8,1.4-1.4,2.8-1.8,4.3c-1.3,4.9-5.8,8.1-9.7,10.9
				s-1.7,3.6,0,7.6c0.8,1.8-9.7,4.5-10.9,5.1c-3.5,1.8-14,6.3-15,9.8c-1.7,6.2,0.2,5.7-5.7,7.7c3.8,4.4,4.7,5.9,5.4,11.9
				c0.7,6.2,1,11.2,6.5,14.7c4.8,3,8.2,4.7,11.2,10.7c0.3,2.5,8.4,25.4,4.2,26.1c-19.8,3.3-24.4-3.9-44.2-0.7
				c-8-2.6-8.6,7.4-14.7,2.5c-3.9,0.4-14.9-1.3-19.4,1c-3.5,2.1-20.5-19.7-22.8-16.3C12.7,149.6,16.4,144,20.3,138.6z"/>
			<path d="M95.9,58.7c-3.4-1.3-7.1-1.8-10.7-1.4c-1.8,0.1-3.6,0.4-5.4,0.7c-1.8,0.3-3.5,1-5,2c1.1-1.6,2.7-2.8,4.6-3.5
				c1.8-0.7,3.7-1.1,5.6-1.3c2-0.2,3.9-0.1,5.8,0.4C92.9,56.3,94.6,57.3,95.9,58.7z"/>
			<path class="st11" d="M85.5,56.3c0.7-2.8,1.9-5.4,3.4-7.8"/>
			<path d="M174,66.3c0.7-2.6,1.5-5.2,2.2-7.8l1.2-3.9c0.4-1.3,0.8-2.6,1.1-3.9c0.6-2.6,0.7-5.2,0.3-7.8c-0.5-2.6-1.3-5.1-2.4-7.5
				c-1.1-2.4-2.5-4.7-3.5-7.5c-0.9-2.7-1.4-5.4-1.6-8.2l-0.3-4.1c0-0.3-0.1-0.7-0.1-0.9c0-0.1,0-0.2-0.1-0.4c0,0,0.1,0,0,0
				c-0.2,0-0.4,0.1-0.6,0.2c-1.1,0.6-2.2,1.3-3.1,2.2c-1,0.9-2,1.8-3,2.7c-2,1.9-4,3.7-5.9,5.5c-0.4,0.5-0.9,0.9-1.2,1.4
				c-0.4,0.5-0.8,1.1-1.3,1.6c-0.9,1.1-1.9,2.1-3,3l-1.5,1.3l-0.8,0.7c-0.3,0.2-0.5,0.5-0.7,0.6c-0.3,0.4-0.5,0.8-0.6,1.3
				c-0.1,0.3-0.2,0.7-0.4,1.1c-0.2,0.4-0.4,0.8-0.6,1.1c-0.5,0.6-1,1.2-1.6,1.7l-0.9,0.7c-0.1,0.1-0.3,0.2-0.3,0.4
				c-0.1,0.3-0.1,0.7,0.1,1c0.2,0.5,0.5,1,0.8,1.5c1.6,2.1,3.4,4,5.4,5.7c1,0.8,2.1,1.6,3.3,2.3c1.1,0.8,2.2,1.5,3.4,2.2
				c1.2,0.6,2.4,1.3,3.6,2c1.1,0.8,2.1,1.7,3,2.8c1.6,2.2,2.7,4.8,3.2,7.5c-0.5-2.7-1.7-5.2-3.3-7.3c-1.8-2-4.1-3.5-6.6-4.5
				c-1.3-0.5-2.5-1.1-3.7-1.8c-1.2-0.7-2.3-1.5-3.5-2.2c-2.3-1.5-4.7-2.9-6.6-5.3c-0.5-0.6-0.9-1.3-1.2-2c-0.6-1.4-0.2-3.1,1.1-4
				l0.8-0.6c0.5-0.4,0.9-0.8,1.2-1.2c0.3-0.5,0.5-1,0.6-1.5c0.1-0.4,0.3-0.8,0.5-1.2c0.2-0.4,0.5-0.7,0.8-1c0.3-0.3,0.6-0.5,0.8-0.8
				l0.8-0.7l1.5-1.3c1-0.8,1.9-1.8,2.7-2.8c0.4-0.5,0.8-1,1.2-1.6c0.5-0.6,0.9-1.1,1.4-1.6c2-2,4-3.7,6-5.6c1-0.9,2-1.9,3.1-2.8
				c1.1-1,2.3-1.8,3.6-2.5c0.4-0.2,0.9-0.3,1.3-0.4c0.3,0,0.6,0,0.9,0.1c0.3,0.1,0.7,0.3,0.9,0.6c0.4,0.4,0.6,0.9,0.7,1.5
				c0.1,0.5,0.1,0.7,0.1,1.1l0.2,4.1c0.1,2.6,0.6,5.2,1.3,7.8c0.8,2.4,2.2,4.8,3.3,7.3c1.2,2.5,2,5.2,2.4,8c0.4,2.8,0.2,5.6-0.6,8.3
				C177.9,56.2,176,61.2,174,66.3z"/>
			<path d="M127,39.8c2.2,0,4.3,0.2,6.4,0.6c2.1,0.5,4.2,1.2,6.1,2.3c3.7,2.1,7.1,4.7,10,7.8c1.5,1.5,2.9,3.1,4.2,4.6l4.1,4.6
				c1.4,1.5,2.8,3.1,4.1,4.6c1.4,1.5,2.9,3,4.5,4.2c-0.9-0.4-1.9-1-2.7-1.6c-0.9-0.6-1.7-1.2-2.5-1.9c-1.6-1.3-3.2-2.7-4.7-4.1
				c-3.1-2.8-5.9-5.8-8.8-8.6c-0.7-0.7-1.5-1.4-2.3-2s-1.5-1.3-2.3-1.9c-1.6-1.2-3.3-2.3-5-3.3c-3.5-1.8-7.4-2.8-11.3-3L127,39.8z"
				/>
			<path d="M51.9,138.9c-1.8-0.6-3.7-1-5.5-1.4s-3.7-0.7-5.5-1c-3.7-0.5-7.5-0.8-11.2-0.7c1.8-0.8,3.7-1.2,5.7-1.4
				c1.9-0.2,3.9-0.1,5.8,0.1c1.9,0.3,3.9,0.8,5.7,1.5C48.8,136.6,50.5,137.6,51.9,138.9z"/>
			<path class="st5" d="M58.3,133.9c-2.9,0.7-6,1.6-8.2,1.7h-0.8l0,0c-7.4,0.1-17-2.6-19.9-5.6c-2.6-2.7-2.9-5.6-3-9.2
				c0-0.7,0-1.3,0.1-2c0.3-2.9,0.4-4.8,1.3-6.8c0,0,29.7-4.9,29.1-5.6s22.5,4.3,22.5,4.3l-8.6,21L58.3,133.9z"/>
			<path d="M40.9,123.2c0.3,3.5,3.5,6.1,7,5.8c3.5-0.3,6.1-3.5,5.8-7c-0.3-3.5-3.5-6.1-7-5.8c0,0-0.1,0-0.1,0
				C43.1,116.6,40.5,119.7,40.9,123.2C40.9,123.2,40.9,123.2,40.9,123.2z"/>
			<path class="st12" d="M127.4,104.9L127.4,104.9c-1.1,1.5-1.1,3.4,0.1,4.3l4.7,3.6c1.2,0.9,3.1,0.4,4.2-1.1"/>
			<path class="st13" d="M114.2,117.4c0.6,6.3,6.2,11,12.6,10.3c6.3-0.6,11-6.2,10.3-12.6c-0.6-6.3-6.2-10.9-12.5-10.3
				C118.3,105.4,113.6,111.1,114.2,117.4C114.2,117.4,114.2,117.4,114.2,117.4z"/>
			<path class="st14" d="M122.6,107.5c-0.8,0.5-1.5,1-2.3,1.6"/>
			<path class="st14" d="M117.3,113c-0.4,0.8-0.7,1.7-0.9,2.6"/>
			<path class="st4" d="M86.2,194.6h0.1c1.9,2.8,3.6,5.7,5,8.8C89.9,200.4,88.2,197.4,86.2,194.6z"/>
			<path class="st15" d="M107.3,143.1l0.6-0.1c0.2,0.3,0.4,0.7,0.6,1C108.1,143.7,107.7,143.4,107.3,143.1z"/>
			<path class="st5" d="M53.8,150.6c4.3-7,14.8-12.5,27.3-13.6c10.5-0.9,20.1,1.6,26.1,6c-7.1,0.9-15.5,3.8-19.8,4.6
				C76.3,149.6,65.1,150.6,53.8,150.6z"/>
			<path class="st5" d="M25.7,146.3"/>
			<path class="st5" d="M51.8,150.6c11.9,0.1,23.8-0.9,35.6-2.9c6.7-1.2,23.1-7.5,29.5-3.6c2.7,1.8,3.7,6.8,3.5,9.9
				c-0.2,2.3-1.4,5.3,0.8,7.2c2.7,3.7,11,1.2,13.1,6.1c1.8,2.7-0.7,4,2.7,6c6.6,3.8,0.8,4-0.2,8.6c-0.5,2.3,4.1,3.1,5.5,3.9
				c1.1,0.5,2,1.5,2.4,2.7c0.1,0.3,0.5,1.7,1.1,3.7c2.2,6.4,7.1,18.2,12.2,14c-26.5,29.8-42.2,38.5-66.7,39.4
				c-7.3,0.3-18.6,1.2-25.5-2.3c-7.8-2.8-15.5-12.5-27.6-28.2c-9.4-12.3-22.1-20.2-27.8-35.5c-1.9-5.2-3.3-17.3,0.4-25.4"/>
			<path class="st5" d="M38.2,158.1"/>
			<path class="st16" d="M81.4,169.6c0.6,0-3.5,8.6-0.9,14.3"/>
			<path class="st17" d="M86.7,189.9l4.5-1.2c-3.8,0.5-4.8-5-10.9-4.8c-5.4,0.1-5.1,6-9.3,5.4"/>
			<path d="M132.2,174.1c-1.4,1.7-3,3.2-4.9,4.4c-1.8,1.2-3.7,2.3-5.6,3.3c-3.8,2-7.8,3.8-11.9,5.3c-16.5,5.5-34.2,6.7-51.3,3.2
				c-4.2-0.9-8.4-2.2-12.4-3.9c-4-1.6-7.8-3.9-11.1-6.7l0.8-0.8c1.6,1.3,3.4,2.5,5.2,3.4c1.9,1,3.8,1.9,5.7,2.6
				c3.9,1.5,8,2.6,12.2,3.3c8.3,1.4,16.8,1.6,25.2,0.8c8.4-0.3,16.8-1.8,24.8-4.3c4-1.3,7.9-3,11.7-4.9c3.8-1.9,7.2-4.3,11-6.3
				L132.2,174.1z"/>
			<path d="M36.7,178.8c0.5,0.9-1,2.9,0.1,4.7c0.8,1.4,1.9,2.7,3.1,3.8c-1.1-0.4-4.5-3.9-4.6-5.7s-0.1-1.6-0.1-1.6l-1,0.1l0.4-1
				c0,0-2.5-2.2-2.2-2.7c0.2-0.3,2,0.9,2.8,1.4C35.8,178.1,36.3,178.5,36.7,178.8z"/>
			<path d="M129,180.3c-0.2,0.8-6.2,7.3-6.3,7.8c-0.3,1,8-4.5,8.3-9.4c0.4-0.3,1-0.4,1.5-0.3c-0.2-0.6-0.5-1.3-0.9-1.8
				c-0.4-1.5,1.1-2.8,1.1-2.8s2.6-3.8,1.8-3.2c-1.1,0.6-2.2,1.2-3.2,1.9c-0.9,0.8-1.5,0.7-2.2,1.6c-0.3,0.7-0.3,1.6-0.1,2.3
				C129.3,177.7,129.3,179,129,180.3z"/>
			<path class="st18" d="M67.1,197.5c2.2,0.5,4.4,0.8,6.6,1c3.1,0.3,5.4,0.4,6.9,0.4s4.4-0.4,6.5-0.6c2.6-0.3,5.2-0.7,7.8-1.3
				c0,0-4.6,3.3-4.3,4.2c-0.6,0.3-1.5,0.6-2.1,0.9c-0.7-0.4-1.5-0.8-2.3-1.1l-2.3,4.4c-1.1,0.3-2.2,0.3-3.3,0.1
				c-2.1-1.9-4.4-3.7-6.8-5.3l-0.4,1.3c0,0-1.4-0.1-2-0.3C70.1,199.7,68.7,198.5,67.1,197.5z"/>
			<path class="st19" d="M58.8,134.2"/>
			<path class="st20" d="M18.8,116.7c-1.6-1.1-2.7-10-1.3-12.2c8.3-13.2,24.2-9.1,34.9-8.9c5.9,0.1,14.6-0.4,19-0.8
				c1.7-0.2,1.3,9.2-4.4,14.5c-6.3,5.9-28,3.7-39,2.3c-0.7-0.1-1.6,0.7-2.2,0.7C19.9,112.3,19.8,117.4,18.8,116.7z"/>
			<path class="st21" d="M18.6,115.7c-1.2-1-3.2-7.2-0.3-12.4c7.3-13.4,23.4-7.5,34.2-7.6c5.9-0.1,14.6-0.4,19-0.8
				c1.7-0.2,1.3,9.2-4.4,14.5c-6.3,5.9-25.1,3.6-36.1,2.7c-1.7,0-3.4,0.1-5.1,0.3C21.2,113,19.5,116.4,18.6,115.7z"/>
			<path class="st22" d="M74.5,171.6c-0.1-2.4-1.9-6.9-5.8-7.6c-2.5-0.4-5,0.5-6.6,2.5c-6.1-2.8-10-5.3-10.4-10.6
				c-0.8-9.9,11.6-19.1,27.7-20.4s29.9,5.6,30.8,15.6c0.5,5.5-2.9,8.9-8.9,12.8c-1.7-1.3-5.1-3.4-8.2-2.7c-6.8,1.4-7.8,7.1-7.2,9.8
				c-1.9,1.2-4,1.9-6.3,2C77.9,172.9,76.1,172.4,74.5,171.6z"/>
		</g>
	</g>
</g>
</svg>
