<svg xmlns="http://www.w3.org/2000/svg" xmlns:xlink="http://www.w3.org/1999/xlink" viewBox="0 0 195.98 247.03"><defs><style>.cls-1{fill:#333;}.cls-2{fill:#858585;}.cls-25,.cls-3{fill:#595959;}.cls-26,.cls-4{fill:gray;}.cls-5{fill:#1e1e1e;}.cls-6{fill:#0f0f0f;}.cls-10,.cls-11,.cls-12,.cls-16,.cls-31,.cls-37,.cls-7{fill:none;}.cls-8{fill:#b1b1b1;}.cls-9{fill:#ececec;}.cls-10,.cls-11,.cls-12,.cls-16,.cls-17,.cls-18,.cls-25,.cls-26,.cls-31,.cls-32,.cls-33,.cls-37,.cls-38{stroke:#000;stroke-miterlimit:10;}.cls-10,.cls-18,.cls-38{stroke-width:2.5px;}.cls-11,.cls-26{stroke-width:2px;}.cls-13{fill:#ff8e00;}.cls-14{fill:#ffa100;}.cls-15{fill:#ffbc32;}.cls-16{stroke-width:2.34px;}.cls-17{stroke-width:2.26px;fill:url(#linear-gradient);}.cls-18,.cls-34{fill:#f19122;}.cls-19{fill:#f5f4f2;}.cls-20{fill:url(#linear-gradient-2);}.cls-21{fill:#b8b8b8;}.cls-22{fill:#d2d1d1;}.cls-23{fill:url(#linear-gradient-3);}.cls-24{fill:#f3f2f2;}.cls-25{stroke-width:0.75px;}.cls-27{fill:#871813;}.cls-28{fill:url(#radial-gradient);}.cls-29{fill:#f3f3f3;}.cls-30{fill:#d6d6d5;}.cls-31{stroke-linecap:round;stroke-width:3px;}.cls-32{stroke-width:0.45px;}.cls-33{stroke-width:2.02px;}.cls-35{fill:#101111;}.cls-36{fill:#2d2d2d;}.cls-37{stroke-width:2.45px;}.cls-38{fill:#191919;}.cls-39{fill:#4e4d4d;}</style><linearGradient id="linear-gradient" x1="169.49" y1="537.95" x2="237.77" y2="592.39" gradientTransform="translate(206.87 632.07) rotate(-177.83)" gradientUnits="userSpaceOnUse"><stop offset="0.28" stop-color="#ffa100"/><stop offset="0.74" stop-color="#e15c00"/></linearGradient><linearGradient id="linear-gradient-2" x1="49.17" y1="562.43" x2="48.04" y2="615.51" gradientTransform="translate(273.76 620.97) rotate(173.78)" gradientUnits="userSpaceOnUse"><stop offset="0.11" stop-color="#ff8e00"/><stop offset="0.74" stop-color="#e15c00"/></linearGradient><linearGradient id="linear-gradient-3" x1="173.11" y1="509.31" x2="173.11" y2="528.89" gradientTransform="translate(250.75 630.42) rotate(176.64)" gradientUnits="userSpaceOnUse"><stop offset="0" stop-color="#59c2e7"/><stop offset="1" stop-color="#074c6a"/></linearGradient><radialGradient id="radial-gradient" cx="92.67" cy="517.73" r="6.85" gradientTransform="translate(273.76 620.97) rotate(173.78)" gradientUnits="userSpaceOnUse"><stop offset="0" stop-color="#f5ab73"/><stop offset="1" stop-color="#e10613"/></radialGradient></defs><title>testAsset 1</title><g id="Layer_2" data-name="Layer 2"><g id="Layer_1-2" data-name="Layer 1"><g id="Happy_Face" data-name="Happy Face"><path class="cls-1" d="M160.85,166.16l.63-6.37a10.15,10.15,0,0,0,1.07-.48.08.08,0,0,1,0,0,9.2,9.2,0,0,0,4,.19c0,1.39.23,3.12.4,5a13,13,0,0,0-1.72-1.29,14,14,0,0,1,1.72,1.29c.43,4.65.42,10.18-5.19,13.61a33,33,0,0,0-3.53,2.61l1.46-13.9C160.37,166.65,160.82,166.44,160.85,166.16Z"/><path class="cls-1" d="M110.23,103.91c7.79-2.58,14.3-5.15,20.41-6.92.67-.19,1.34-.39,2-.56,1.64-.43,3.25-.79,4.86-1.07,1.08-.19,2.15-.34,3.23-.45a9.58,9.58,0,0,1,1.85,0c8.46.88,22.18,12.17,14.29,27.71-2.67,5.25-7.76,10.59-14.66,12-.88.18-1.8.35-2.73.51a93.68,93.68,0,0,1-15,1.33c-6,0-11.73-.62-15.86-2.29a14,14,0,0,1-3.45-1.93c-4.41-3.48-10.78-13-11.47-18.8C93,107.11,104.35,105.86,110.23,103.91Z"/><path class="cls-2" d="M116.18,150.35s1.8,0,4.32.26c-3.14.13-6.21.24-9.14.31a1,1,0,0,0,0-.16Z"/><path class="cls-2" d="M114.33,172.54c3.24-.54-.8-14.18-3-21.62,2.93-.08,6-.18,9.14-.31,4,.36,9.72,1.18,12.89,3.07a9.71,9.71,0,0,1,3.75,4.36l-1.84-.13,1.84.13a6.88,6.88,0,0,0,2.23,2.92c-1.38.38-7.89,2.76-5,12.87L92.93,195.42l-5-23.85C95.69,172.6,102.11,174.56,114.33,172.54Z"/><path class="cls-2" d="M110.1,44.15l1.43-1.53,11-.59,7.14,2.06-.54.63C123.14,44.7,116.39,44,110.1,44.15Z"/><path class="cls-2" d="M161.33,81.62a21.19,21.19,0,0,0-10.67-2.86,5.77,5.77,0,0,0-1.48-1.42,5.77,5.77,0,0,1,1.48,1.42c-9.39-.28-20.9,3.51-32.06,7.81-1.75-4-4-4.69,0-7.56s8.41-6,9.73-10.94a20.91,20.91,0,0,1,1.85-4.35s7.58,6.88,10,7c4,.27,10.93-.51,16.69.4a2.65,2.65,0,0,0-1,2.51,2.12,2.12,0,1,0,4.11-.44,3,3,0,0,0-.62-1.53,10.18,10.18,0,0,1,5.37,3.14A12.32,12.32,0,0,0,161.33,81.62Z"/><path class="cls-3" d="M177.82,132.24c.9-.16,1.41-1.52,1.14-3s-1.05-2.4-1.87-2.46c-1-4.38-3.83-8.43-9.67-11,0,0,0,0,0,0a67,67,0,0,1,13.35-.32c0,.12,0,.23,0,.35,0-.12,0-.23,0-.35a19.73,19.73,0,0,1,3.33.62,21.71,21.71,0,0,1,1.06,6.59c-1.47,1.22-2.2,4.75-1.75,8.88a23,23,0,0,1-8.66,10.27,26.5,26.5,0,0,0,2.7-9.49A1.07,1.07,0,0,0,177.82,132.24Z"/><path class="cls-2" d="M154.73,133.48c4-2.87,9.29-9.7,12.69-17.79,5.85,2.6,8.69,6.65,9.67,11a1.13,1.13,0,0,0-.26,0c-.9.16-1.41,1.52-1.14,3a2.86,2.86,0,0,0,1.76,2.45,26.5,26.5,0,0,1-2.7,9.49,32.82,32.82,0,0,1-10.62,4.48,5.84,5.84,0,0,0-.73-2.14C161.81,141.36,155.41,134.25,154.73,133.48Z"/><path class="cls-2" d="M166.55,159.4v.06a9.19,9.19,0,0,1-4-.19l.45-2.68c9.93-1.72,33.17-8.09,30.78-29.4a21.73,21.73,0,0,1,.82,4.22c.76,8.19-2.45,12.78-4.61,15.12l0,.15c-4.76,4.65-7.71,7.09-12.22,9.23a48,48,0,0,1-5.74,2.28l-.05-.29.05.29a29.61,29.61,0,0,1-5.48,1.28A.2.2,0,0,0,166.55,159.4Z"/><path class="cls-3" d="M163,156.59c.86-5,1.47-8.09,1.11-10.39a32.6,32.6,0,0,0,10.62-4.48,21.42,21.42,0,0,1-2.79,4.34,21.42,21.42,0,0,0,2.79-4.34,23,23,0,0,0,8.66-10.27.22.22,0,0,0,0,.08c0,.21.05.43.08.65,0,0,0,0,0,.06s0,0,0,.08c.77,5.31,3.18,9.35,5.38,9,1.57-.23,2.6-2.62,2.78-5.9l.3.19-.3-.19a21.24,21.24,0,0,0-.21-4.29c-.77-5.31-3.18-9.35-5.38-9a1.91,1.91,0,0,0-.93.44A21.76,21.76,0,0,0,184.1,116a10,10,0,0,1,1.81.69c3.59,1.86,6.49,5.79,7.89,10.52C196.19,148.5,173,154.87,163,156.59Z"/><path class="cls-2" d="M137.15,95.35c1.59-.39,3.1-.69,4.55-.92l.53.49a8.85,8.85,0,0,0-1.85,0C139.31,95,138.23,95.16,137.15,95.35Z"/><path class="cls-2" d="M163.4,144.05l-.22-.35c-.1-.16-.22-.33-.35-.51l-.23-.33c-.53-.73-1.2-1.59-1.93-2.49l-.09-.11-.08-.09c-.21-.27-.43-.53-.65-.79l-.43-.52c-.53-.62-1-1.24-1.56-1.82l-1-1.12h0l-.16-.18,0,0h0l-1.92-2.17,0,0-.1.07-.07,0-.26.05h0l-.25,0h0c-1.65.29-3.2.51-4.68.68l-.17,0c-3.3.38-6.29.51-9.35.68h0l-.68,0-1.64.26-.47.07-1.05.15-.25,0-1.36.17L133,136l-1.46.14c-1.17.11-2.35.19-3.53.25s-2.55.1-3.81.11h-1.5l-.91,0h0c-.3,0-.6,0-.89,0l-1.41-.07c-.71,0-1.4-.1-2.09-.16l-1.68-.2-.82-.12-.8-.13-1-.19c-.42-.07-.82-.16-1.22-.26l-.53-.13c-.53-.13-1-.28-1.53-.44s-1-.34-1.47-.53a14.55,14.55,0,0,1-3.45-1.93,19.93,19.93,0,0,1-2.18-2c-.21-.22-.42-.45-.62-.68l-.42-.48c-.18-.2-.35-.41-.52-.63s-.35-.43-.53-.65c-.35-.44-.69-.9-1-1.37l-.41-.57-.56-.81-.44-.66-.42-.66c-.31-.49-.6-1-.88-1.47s-.47-.82-.69-1.23-.43-.83-.63-1.23c-.1-.2-.2-.4-.29-.61l-.28-.61-.26-.6c-.09-.2-.17-.4-.24-.59s-.1-.27-.14-.4-.05-.13-.07-.19c-.14-.38-.27-.76-.38-1.13-.06-.19-.11-.37-.15-.55a3.39,3.39,0,0,1-.11-.43.45.45,0,0,1,0-.16l0-.13,0-.13c0-.1,0-.21,0-.31l0-.16c0-.11,0-.22,0-.33v-.06l0-.24v-.06a4.73,4.73,0,0,1,0-.76,4.11,4.11,0,0,1,.28-1.07s0,0,0,0a2.11,2.11,0,0,1,.16-.34,3.35,3.35,0,0,1,.21-.36l.15-.23c.07-.1.15-.19.22-.28a4.12,4.12,0,0,1,.28-.31l.09-.1a3.81,3.81,0,0,1,.36-.33,3.65,3.65,0,0,1,.43-.35,9.79,9.79,0,0,1,1-.65,11.64,11.64,0,0,1,1.11-.59c.29-.14.59-.27.9-.4l.94-.37a55.1,55.1,0,0,1,5.43-1.62l1.23-.32,1.41-.37.93-.25.87-.26.55-.17c7.79-2.58,14.3-5.16,20.41-6.93l.55-.22h0a79.7,79.7,0,0,0,8.55-4c8.92-4.87,13.85-10.26,11.24-14h-1l-1.39,0c-.47,0-1,0-1.43.08l-.68.06-.91.09c-.61.06-1.22.14-1.84.23s-1.13.17-1.71.28l-.16,0-.18,0-.78.15-1,.19-1,.21-1,.22c-.65.15-1.3.32-1.95.49L135,81c-.36.08-.72.19-1.08.29l-.62.17-1.6.47c-.8.24-1.61.5-2.42.76l-1.61.53-.5.17c-.72.24-1.44.49-2.15.75l-1.4.5c-1.69.61-3.38,1.25-5.06,1.9a0,0,0,0,0,0,0,.27.27,0,0,1,0,.12.17.17,0,0,1,0,.07.51.51,0,0,1,0,.17l-.06.13a2.45,2.45,0,0,1-.71.68l-.2.13-.3.18-.33.18a41,41,0,0,1-5.12,2.05l-.33.11-2.34.77-.27.09a11.48,11.48,0,0,0-1.21.45c-3.51,1.84-13.75,6.52-14.67,10-1.7,6.22-2.11,6.8-1.34,8.48,1.8,7.74,0,4.86.69,10.88,0,.4.09.8.13,1.19.11,1,.21,2,.35,2.88,0,.17,0,.33.07.49.06.36.11.71.18,1.06a17.52,17.52,0,0,0,.47,2c.07.25.15.5.23.74a2.25,2.25,0,0,1,.08.24s0,0,0,0v0a0,0,0,0,1,0,0,3.65,3.65,0,0,0,.14.35,3.79,3.79,0,0,0,.18.42c.06.14.12.28.19.41a11,11,0,0,0,3.15,3.9,4.11,4.11,0,0,0,.35.27c.3.23.61.44.94.65l2,1.23.94.59.76.49.73.49.56.4c.19.13.37.27.55.42l.54.43a12.68,12.68,0,0,1,1,.92l.25.24c.25.24.5.51.75.78l.45.52s0,0,0,0a6.26,6.26,0,0,1,.45.57l0,.06.07.09h0l0,0c.16.21.32.44.48.67s.48.73.71,1.12.39.66.58,1l.29.55a44.51,44.51,0,0,0,1.17,4.36l4.87-.42s.66,0,1.75.08h.33c.58,0,1.26.08,2,.15l.23,0,.45,0h0l2.58-.12h.19c2.55-.12,5.14-.26,7.72-.43h0c3.71-.23,7.41-.5,11-.83l1.22-.11.3,0h0c4.19-.39,8.2-.84,11.85-1.37h0c2.42-.35,4.68-.74,6.74-1.15.53-.1,1-.23,1.55-.35A6.11,6.11,0,0,0,163.4,144.05ZM107,98.79a2.87,2.87,0,0,1,.05.31.09.09,0,0,1,0,.05c0,.12,0,.23,0,.35a1.1,1.1,0,0,1,0,.26.81.81,0,0,1,0,.16,2.46,2.46,0,0,1-.1.47h0a3.16,3.16,0,0,1-.16.43,2.59,2.59,0,0,1-.17.33,2.71,2.71,0,0,1-.24.35,2,2,0,0,1-.28.31l-.16.15-.16.13-.15.1-.06,0,0,0a.82.82,0,0,1-.2.12,2.36,2.36,0,0,1-.28.12l-.14.06h0l-.33.09-.38.07a2.89,2.89,0,0,1-.72,0l-.23,0a.93.93,0,0,1-.22,0l-.2-.06a2.82,2.82,0,0,1-.45-.18,1.57,1.57,0,0,1-.25-.14,1.82,1.82,0,0,1-.23-.15,3.27,3.27,0,0,1-.75-.78,1.64,1.64,0,0,1-.14-.22,1,1,0,0,1-.12-.23.85.85,0,0,1-.09-.22l0,0a1.83,1.83,0,0,1-.08-.25,3.35,3.35,0,0,1-.11-.55,3.27,3.27,0,0,1,2.91-3.6,3.62,3.62,0,0,1,.57,0l.18,0a2.7,2.7,0,0,1,.41.08l.09,0,.32.11.37.17,0,0a2.39,2.39,0,0,1,.34.21,1.37,1.37,0,0,1,.23.19l.21.2a1.37,1.37,0,0,1,.19.23,2.17,2.17,0,0,1,.32.49l.13.26h0A3.27,3.27,0,0,1,107,98.79Z"/><path class="cls-3" d="M141.7,94.43c-1.45.23-3,.53-4.55.92s-3.22.64-4.86,1.07l.05,0-.05,0c-.66.17-1.33.36-2,.56a81.25,81.25,0,0,0,9.12-4.23A13.65,13.65,0,0,1,141.7,94.43Z"/><path class="cls-3" d="M170.79,99.58c0-.1,0-.19,0-.28a2.72,2.72,0,0,0,0-.28.41.41,0,0,0,0-.11c0-.21,0-.42,0-.63s0-.36-.05-.54,0-.28,0-.42a2,2,0,0,0,0-.23s0,0,0,0,0-.07,0-.1c0-.32-.09-.65-.14-1s-.13-.73-.21-1.09l-.09-.39a2.34,2.34,0,0,0-.09-.38,1.83,1.83,0,0,0-.06-.25.65.65,0,0,1,0-.13l-.09-.33c-.07-.22-.13-.45-.21-.67a.25.25,0,0,0,0-.07c-.1-.32-.22-.64-.33-1l0-.07c-.13-.34-.26-.67-.41-1s-.26-.59-.41-.88a1.34,1.34,0,0,0-.12-.24c-.16-.32-.33-.64-.51-1a20.71,20.71,0,0,0-1.36-2.09c-.18-.25-.37-.49-.57-.74l-.07-.09c-.17-.21-.34-.42-.52-.62l-.38-.42c-.23-.25-.46-.49-.7-.73a15.32,15.32,0,0,0-2.9-2.28,21.06,21.06,0,0,0-10.67-2.86c2.61,3.73-2.32,9.12-11.24,14a14.29,14.29,0,0,1,2.14,1.54l.15.13.43.42h0a.12.12,0,0,1,0,.05h0l0,0a10.17,10.17,0,0,1,1.29.21c.22,0,.43.1.66.16l.68.19.51.17.24.09.24.09.63.25c.27.11.55.23.82.37s.46.22.69.34l.71.39c.22.12.44.25.65.39a21.74,21.74,0,0,1,2.43,1.74,16.82,16.82,0,0,1,1.27,1.13l.62.63c.13.13.26.27.38.41l.42.47.16.2q.3.34.57.72a.15.15,0,0,1,.05.07,8.17,8.17,0,0,1,.5.7,1.15,1.15,0,0,1,.14.19c.16.24.32.5.47.75a16.52,16.52,0,0,1,1.46,3c.06.15.12.31.17.47q.25.77.45,1.56a3.15,3.15,0,0,1,.09.42,0,0,0,0,1,0,0s0,0,0,0,0,0,0,0l.09.47a.3.3,0,0,1,0,.1c0,.22.07.45.1.68,0,.06,0,.11,0,.16a1.36,1.36,0,0,0,0,.2.22.22,0,0,1,0,.08q0,.34.06.69a17.69,17.69,0,0,1,0,2.06c0,.17,0,.33,0,.5v0s0,0,0,0a5.43,5.43,0,0,1-.06.55c0,.27-.07.55-.12.83l0,.17s0,0,0,.06c0,.25-.09.51-.15.76s-.17.74-.28,1.11c0,.17-.1.34-.16.52s-.11.37-.18.55-.21.59-.33.89c-.27.69-.59,1.4-.95,2.11-2.66,5.25-7.76,10.59-14.65,12-.89.18-1.8.35-2.73.5l.68,0h0c3.06-.17,6-.3,9.35-.68l.17,0c1.48-.17,3-.39,4.68-.68h0l.25,0h0l.26-.05.07,0,.1-.07.23-.17.07-.06h0a0,0,0,0,1,0,0h.07l.37-.29h0l0,0a25.49,25.49,0,0,0,2.4-2.25c.2-.22.42-.45.63-.69l.39-.44c.14-.15.27-.31.4-.47.37-.43.74-.89,1.11-1.37.21-.27.43-.55.64-.84l.63-.87q.39-.56.78-1.14c.23-.33.45-.67.67-1s.41-.64.6-1,.5-.83.74-1.26.53-.93.78-1.41c.17-.32.35-.66.51-1,0-.09.1-.17.14-.26s.05-.09.07-.14c.5-1,1-2,1.41-3.07h0c.25-.6.5-1.21.73-1.83s.44-1.23.65-1.86c.06-.16.11-.31.16-.47l.13-.43c.1-.33.2-.66.29-1s.18-.64.26-1q.19-.76.36-1.56c.05-.2.09-.41.13-.62.09-.43.16-.87.23-1.3s.13-.88.19-1.31c0-.25.06-.5.08-.75s0-.25,0-.38a1.09,1.09,0,0,0,0-.18c0-.44.06-.87.08-1.31a.86.86,0,0,0,0-.16c0-.37,0-.75,0-1.12S170.81,99.87,170.79,99.58Zm-3.37-3.23a.49.49,0,0,1,0,.12.88.88,0,0,1,0,.17v0h0a0,0,0,0,0,0,0,.41.41,0,0,1,0,.16,1.49,1.49,0,0,1-.15.45,2.54,2.54,0,0,1-.16.28,2,2,0,0,1-.19.22s0,0,0,0a1,1,0,0,1-.41.23c-.92.28-2.05-.77-2.52-2.33a2.21,2.21,0,0,1,0-.25.24.24,0,0,1,0-.08c0-.13-.05-.25-.07-.37a1.13,1.13,0,0,1,0-.18c0-.06,0-.12,0-.19a2.47,2.47,0,0,1,0-.61,2.91,2.91,0,0,1,0-.31,2.37,2.37,0,0,1,.32-.81.58.58,0,0,1,.11-.15l.15-.16.06,0a.42.42,0,0,1,.14-.09.72.72,0,0,1,.2-.09c.93-.28,2.06.77,2.52,2.33,0,.11,0,.21.08.32a2.83,2.83,0,0,1,.08.4.22.22,0,0,1,0,.08,1.49,1.49,0,0,1,0,.21A4.09,4.09,0,0,1,167.42,96.35Z"/><path class="cls-3" d="M167.42,115.68s0,0,0,0h0Z"/><path class="cls-2" d="M163,156.59c-.14.84-.3,1.73-.45,2.68l-.1,0,.1,0s0,0,0,0a9.14,9.14,0,0,1-1.07.48v-.1a29.16,29.16,0,0,1-7.06,1.62v.06l-1.13.14v0a51.89,51.89,0,0,1-7.51.42v0a36.93,36.93,0,0,1-4.68-.33,4.56,4.56,0,0,1-1.75-.62l.25-.06-.25.06a6.82,6.82,0,0,1-2.23-2.92C149.05,158.92,154.46,159.6,163,156.59Z"/><path class="cls-3" d="M164.22,147a1.49,1.49,0,0,0,0-.21.28.28,0,0,0,0-.09v-.1a.13.13,0,0,0,0-.06,1.65,1.65,0,0,0,0-.31c-.51.12-1,.25-1.55.35-2.06.41-4.32.8-6.74,1.15h0c-3.65.53-7.66,1-11.85,1.37h0l-.3,0-1.22.11c-3.59.33-7.29.6-11,.83h0c-2.58.17-5.17.31-7.72.43h-.19l-2.58.12h0l-.45,0,1,.1h.1l1.2.13H123l.75.1.87.13.87.14.88.16.88.17.62.14.41.09c.52.12,1,.26,1.52.4l.8.25c.53.18,1,.36,1.5.57a9.86,9.86,0,0,1,1.3.66,5.41,5.41,0,0,1,.53.35l.2.14.1.07a.27.27,0,0,1,.08.07,4.54,4.54,0,0,1,.41.33c.11.1.22.2.32.31a1.66,1.66,0,0,1,.26.27,2.91,2.91,0,0,1,.24.27,2.83,2.83,0,0,1,.23.28,6.75,6.75,0,0,1,.41.57,10.42,10.42,0,0,1,.65,1.09l.14.25.06.11,0,.1c0,.05.05.09.07.14h0l1.08.08,1.76.14.31,0,1.46.11,1,.07h0l1.4.09.76.05.91.06,1.44.07.94,0,1.84,0h.9l.74,0h.34c.35,0,.71,0,1.05-.06l1-.08.63-.06,1-.13.71-.11.41-.07h0l.2,0h0l.7-.14.71-.15.54-.13c.28-.07.57-.14.86-.23l.15,0,.15,0c.52-.14,1.06-.3,1.6-.48l1.16-.39h0c.08-.5.17-1,.25-1.44,0-.15,0-.29.08-.44h0s0-.06,0-.08h0s0-.08,0-.12c.08-.45.15-.88.22-1.29,0-.21.07-.41.1-.6.07-.4.13-.78.18-1.15L164,151c.07-.52.13-1,.18-1.45l0-.42c0-.08,0-.16,0-.23a1.8,1.8,0,0,0,0-.22v-.1c0-.11,0-.22,0-.33h0a.81.81,0,0,1,0-.16q0-.44,0-.81C164.23,147.18,164.23,147.07,164.22,147Zm-4.53,9.78h0l-.13.08-.14.07a.05.05,0,0,1,0,0h0l0,0h0l-.2,0h-.17a1.28,1.28,0,0,1-.39-.09.54.54,0,0,1-.18-.1l-.18-.13-.1-.09a2.08,2.08,0,0,1-.39-.55c0-.05-.05-.11-.08-.16a1.17,1.17,0,0,1-.09-.24l0,0a.28.28,0,0,1,0-.13,0,0,0,0,1,0,0s0,0,0-.06l-.06-.19a.13.13,0,0,1,0-.06,3.55,3.55,0,0,1-.09-.47,5.3,5.3,0,0,1,0-.8c0-.06,0-.13,0-.19a4.51,4.51,0,0,1,.07-.53.06.06,0,0,1,0,0,4.42,4.42,0,0,1,.14-.52,2.47,2.47,0,0,1,.1-.29,2.64,2.64,0,0,1,.18-.38,1.64,1.64,0,0,1,.14-.22,2.33,2.33,0,0,1,.31-.38l.17-.14a.94.94,0,0,1,.18-.12,1.28,1.28,0,0,1,.24-.11.76.76,0,0,1,.16,0,.78.78,0,0,1,.22,0,1,1,0,0,1,.29,0h0a1,1,0,0,1,.21.09,1.43,1.43,0,0,1,.3.22l.14.15a1.09,1.09,0,0,1,.13.17,2.26,2.26,0,0,1,.16.26l.09.19a1.33,1.33,0,0,1,.1.24s0,0,0,.06a.08.08,0,0,0,0,0s0,0,0,.06,0,0,0,0a.2.2,0,0,1,0,.11.27.27,0,0,1,0,.12,3.55,3.55,0,0,1,.09.47,1.94,1.94,0,0,1,0,.24v0s0,0,0,.06a.33.33,0,0,1,0,.1v.13a.13.13,0,0,1,0,.06v.22a1,1,0,0,1,0,.25,2,2,0,0,1,0,.35,4.19,4.19,0,0,1-.13.56,3.12,3.12,0,0,1-.15.43,2.92,2.92,0,0,1-.14.31l0,.07a1.43,1.43,0,0,1-.16.24,1.84,1.84,0,0,1-.17.22h0l-.16.16,0,0,0,0Z"/><path class="cls-3" d="M172,158.18l.47,3c.84,4.21,1.19,7.63.68,10.37a33.35,33.35,0,0,0-6.22-7c-.18-1.87-.42-3.6-.4-5A31,31,0,0,0,172,158.18Z"/><path class="cls-1" d="M139.37,161a4.4,4.4,0,0,0,1.75.62,35.17,35.17,0,0,0,4.68.33l-2,6c-.11.33.14.75.63,1.17l-5.1,15.37c-.1.29.91.89,2.24,1.33s2.5.57,2.6.27h0l5.1-15.37c.64,0,1.09-.22,1.2-.56l2.85-8.63,1.13-.14-.42,4.06c0,.29.37.59,1,.84l-1.55,14.82c-.43.13-.71.31-.73.54l-.41,3.84a.4.4,0,0,0,.1.28c-6.43,5.92-14,13.54-18.6,18.07l-24,19.24c-6.65-1.34-11.65-2.71-11.65-2.71l-5.24-24.94,41.45-21.59C131.48,163.71,138,161.34,139.37,161Z"/><path class="cls-3" d="M188.2,131.49c-.46-3.14-1.88-5.52-3.18-5.33l-.12,0a22.28,22.28,0,0,0,.26-3.62,1.82,1.82,0,0,1,.93-.44c2.2-.32,4.61,3.72,5.38,9a22,22,0,0,1,.21,4.29l-3.34-2.1A15.41,15.41,0,0,0,188.2,131.49Z"/><path class="cls-1" d="M186.68,137.51c1-.15,1.67-1.88,1.66-4.16l3.34,2.1c-.18,3.28-1.22,5.67-2.78,5.9-2.2.32-4.61-3.72-5.38-9,0,0,0,0,0-.08C184,135.34,185.39,137.7,186.68,137.51Z"/><path class="cls-3" d="M185.16,122.57a23.47,23.47,0,0,1-.26,3.62c-1.12.3-1.74,2.54-1.49,5.26h0C183,127.32,183.69,123.78,185.16,122.57Z"/><path class="cls-3" d="M183.42,131.53a.22.22,0,0,0,0-.08h0A.19.19,0,0,1,183.42,131.53Z"/><path class="cls-4" d="M183.5,132.17c0-.22-.06-.43-.08-.65,0,.24.05.47.09.71A.35.35,0,0,1,183.5,132.17Z"/><path class="cls-1" d="M184.9,126.19a22.18,22.18,0,0,1-1.49,5.26C183.16,128.73,183.78,126.49,184.9,126.19Z"/><path class="cls-1" d="M184.9,126.19l.12,0c1.3-.19,2.72,2.2,3.18,5.33a13.61,13.61,0,0,1,.14,1.86l-.19-.12.19.12c0,2.28-.63,4-1.66,4.16-1.29.19-2.7-2.17-3.17-5.27l-.09-.71a.22.22,0,0,0,0-.08A22.18,22.18,0,0,0,184.9,126.19Z"/><path class="cls-5" d="M132.29,96.42c1.64-.43,3.25-.79,4.86-1.07-1,.24-2,.5-3,.8,1-.3,2-.56,3-.8s2.15-.34,3.23-.45a9.58,9.58,0,0,1,1.85,0c9.11,8.78,15.58,32.7-18.09,41.54-6,0-11.73-.62-15.86-2.29C86.31,119.49,118.53,102,132.29,96.42Z"/><path class="cls-6" d="M108.28,134.17a14,14,0,0,1-3.45-1.93c-4.41-3.48-10.78-13.05-11.47-18.8-.76-6.34,10.64-7.59,16.52-9.54,7.79-2.58,14.3-5.15,20.41-6.92-.83.33-1.67.65-2.53,1,.86-.31,1.7-.64,2.53-1,.67-.19,1.34-.39,2-.56C118.53,102,86.31,119.49,108.28,134.17Z"/><path class="cls-1" d="M142.23,94.92c8.46.88,22.18,12.17,14.29,27.71-2.67,5.25-7.76,10.59-14.66,12-.88.18-1.8.35-2.73.51-1.77.11-3.56.24-5.47.45,1.9-.21,3.7-.34,5.47-.45a93.68,93.68,0,0,1-15,1.33C157.81,127.62,151.34,103.7,142.23,94.92Z"/><path class="cls-4" d="M149.25,170.7l-5.1,15.37h0c-.1.29-1.26.17-2.6-.27s-2.34-1-2.24-1.33l5.1-15.37a7.08,7.08,0,0,0,2.29,1.2A7.3,7.3,0,0,0,149.25,170.7Z"/><path class="cls-4" d="M152.74,181.63c0-.23.3-.41.73-.54l0,.33h0c0,.23,1,.53,2.29.66l.75.06c-1.26,1.09-2.63,2.31-4,3.61a.4.4,0,0,1-.1-.28Z"/><path class="cls-4" d="M158.1,181.91h0l0-.41c.53.24.84.52.81.79l-.41,3.84c-.06.55-1.5.85-3.21.67a4.66,4.66,0,0,1-2.9-1.05c1.42-1.31,2.78-2.52,4-3.61C157.4,182.18,158.08,182.09,158.1,181.91Z"/><path class="cls-4" d="M158.1,181.91c0,.18-.7.27-1.62.23.61-.52,1.19-1,1.75-1.47l-.09.83,0,.41Z"/><path class="cls-4" d="M155.72,182.08c-1.29-.14-2.31-.44-2.29-.66h0l0-.33L155,166.27a9.46,9.46,0,0,0,2.3.52,9.15,9.15,0,0,0,2.36,0l-1.46,13.9c-.56.45-1.14,1-1.75,1.47Z"/><path class="cls-4" d="M161.5,159.69v.1a33.89,33.89,0,0,1-7.06,1.58v-.06A29.75,29.75,0,0,0,161.5,159.69Z"/><path class="cls-4" d="M160.85,166.16c0,.29-.48.5-1.17.61a9.15,9.15,0,0,1-2.36,0,9.46,9.46,0,0,1-2.3-.52c-.65-.25-1.05-.56-1-.84l.42-4.06a33.89,33.89,0,0,0,7.06-1.58Z"/><path class="cls-4" d="M153.32,161.47v0a61.07,61.07,0,0,1-7.51.4v0A53.35,53.35,0,0,0,153.32,161.47Z"/><path class="cls-4" d="M150.46,170.14c-.11.33-.56.52-1.2.56a7.08,7.08,0,0,1-2.55-.41,7.28,7.28,0,0,1-2.29-1.2c-.49-.41-.74-.83-.63-1.17l2-6a61.17,61.17,0,0,0,7.51-.4Z"/><path d="M159.14,150.94c1,0,1.75,1.44,1.68,3.12s-.94,3-1.93,3-1.75-1.44-1.68-3.12S158.14,150.89,159.14,150.94Z"/><path d="M184.76,158.36c.82,0,1.43,1.2,1.36,2.58s-.79,2.48-1.62,2.43-1.43-1.2-1.36-2.58S183.94,158.31,184.76,158.36Z"/><path d="M179,129.2c.27,1.52-.24,2.88-1.14,3a.92.92,0,0,1-.37,0,18.49,18.49,0,0,0-.36-5.5C177.91,126.8,178.71,127.82,179,129.2Z"/><path d="M177.45,132.23a2.86,2.86,0,0,1-1.76-2.45c-.27-1.52.24-2.88,1.14-3a.76.76,0,0,1,.26,0A18.76,18.76,0,0,1,177.45,132.23Z"/><path d="M164.72,92.4c.93-.28,2.06.77,2.52,2.33s.09,3.06-.84,3.33-2.05-.77-2.52-2.34S163.79,92.68,164.72,92.4Z"/><path d="M103.4,96.27a3.26,3.26,0,1,1-2.92,3.6A3.26,3.26,0,0,1,103.4,96.27Z"/><path d="M158.15,76a2.36,2.36,0,0,1-2.33-2.34,2.64,2.64,0,0,1,1-2.51,22.91,22.91,0,0,1,2.47.53,2.88,2.88,0,0,1,.62,1.53A2.37,2.37,0,0,1,158.15,76Z"/><path class="cls-7" d="M175.14,73.75a11,11,0,0,0-1.17-.68c-5.45-3.11-16.84-9.36-19.81-13.13-3.41-4.32-10.78-1.93-20.06,2.12.14-5.84,3.67-9.87,4.48-15.4l-8.9-2.57c3.39-4,6.94-7.11,11-11.59,5.3-5.8,10.63-8.61,16.53-13.87,3.64-3.24,16.05-19.19,20.91-11.71,3.86,5.9,2.8,12.54,3.77,19.19.47,3.22,1.65,4.17,2.58,7.26.2.67.42,1.34.65,2a4.79,4.79,0,0,0-1.57,2.12c-1,2.86.92,6.25,4.44,7.93a14.68,14.68,0,0,1,.09,2.09c-.23,6.81-2.6,12.73-5.14,19.39-1.84,4.83-2.6,6.84-4.7,9-.56-.46-1.14-.9-1.75-1.31C176.2,74.37,175.73,74.09,175.14,73.75Z"/><path class="cls-7" d="M22.46,142.32c2.46-3.43-4.34-19.51-5.13-24.38-2.22-13.13-.72-24.29,9.52-33.38,8.46-7.5,8.42-19,18.6-25.75C53.94,53.18,84,40.33,91.12,52.45c4-6.35,11.16-8.05,19-8.29l-40,42.71,2.78,13.26L84,153.1l3.88,18.47a56.37,56.37,0,0,0-17.8.32c-8-2.6-8.59,7.45-14.65,2.49-3.88.42-14.91-1.25-19.37,1-3.48,2.1-20.47-19.66-22.76-16.33C14.85,153.27,18.61,147.71,22.46,142.32Z"/><path class="cls-7" d="M174,73.07a8.83,8.83,0,0,1,1.17.68Z"/><path class="cls-3" d="M168.38,72.5a7.45,7.45,0,0,1,5.59.57l1.17.68c.59.34,1.06.63,1.36.83.61.41,1.19.85,1.75,1.31,5,4.1,8.17,10.12,8.49,18.1.27,6.71-3.38,15.18-.93,22.62l.09,0a10,10,0,0,0-1.81-.69,19.73,19.73,0,0,0-3.33-.62c-.32-4.73-.66-8-.19-10.38,2.17-10.77-.89-20.35-8.28-28.57A48,48,0,0,0,168.38,72.5Z"/><path class="cls-2" d="M111.35,150.92l-2.71.07,2.67-.23C111.32,150.82,111.34,150.87,111.35,150.92Z"/><path class="cls-2" d="M108.64,151l2.71-.07c2.18,7.44,6.21,21.08,3,21.62-12.22,2-18.64.05-26.4-1l-3.88-18.47Z"/><path class="cls-3" d="M134.1,62.06c9.28-4.05,16.65-6.45,20.06-2.12,3,3.77,14.37,10,19.81,13.13a7.45,7.45,0,0,0-5.59-.57l-.32-.29.32.29a8.79,8.79,0,0,0-3.71,2.33,10.18,10.18,0,0,0-5.37-3.14,2,2,0,0,0-1.71-.8,1.71,1.71,0,0,0-.76.28c-5.76-.9-12.74-.12-16.69-.4-2.4-.17-10-7-10-7a20.39,20.39,0,0,0-1.85,4.35C127,73,122.52,76.19,118.58,79s-1.73,3.57,0,7.56c-11,4.23-21.6,9-29.5,10.8l-16.17,2.75L70.15,86.87l40-42.71c6.29-.19,13,.55,19,.57l.54-.63,8.9,2.57C137.77,52.19,134.23,56.23,134.1,62.06Z"/><path class="cls-3" d="M89.1,97.37c7.9-1.84,18.52-6.57,29.5-10.8,0,0,0,0,0,0,.75,1.75-9.67,4.52-10.86,5.13-3.51,1.83-13.75,6.51-14.67,10-1.7,6.23-2.1,6.8-1.34,8.48,1.8,7.75,0,4.86.7,10.88.68,6.2,1,11.17,6.48,14.66,4.79,3,8.18,4.69,11.22,10.66a43.75,43.75,0,0,0,1.17,4.36l-2.67.23-24.59,2.1-11.12-53Z"/><path class="cls-3" d="M164.67,74.83a8.79,8.79,0,0,1,3.71-2.33,51.75,51.75,0,0,1,3.93,3.9c7.39,8.23,10.45,17.8,8.28,28.57-.47,2.35-.13,5.66.19,10.38a66.17,66.17,0,0,0-13.35.32c4.39-10.45,5.62-23-3.2-31.78a15.74,15.74,0,0,0-2.9-2.28A12.45,12.45,0,0,1,164.67,74.83Z"/><path d="M157.59,70.88a2,2,0,0,1,1.71.8,23.44,23.44,0,0,0-2.47-.53A1.82,1.82,0,0,1,157.59,70.88Z"/><path class="cls-8" d="M168.87,119.38c-3.07,6.07-8.65,14.41-12.17,16.32-4.4,1.29-32,4.2-44.47,2.74,13.75,5.46,22.84,5.18,48.34,2.05C169.22,130.87,169.39,121.52,168.87,119.38Z"/><path class="cls-9" d="M163.84,131.51c-3.82,4.35-3.06,3.26-6,5.52-4.4,1.29-8.89,1.92-20.81,2.92,7.67.94,15.63.1,22.36-1.1C161.52,136.8,163.13,135,163.84,131.51Z"/><path class="cls-8" d="M148.33,81c-6.08,2.77-37,12.28-40.93,13.08C119,88.8,135.37,81.31,148.33,81Z"/><path class="cls-8" d="M124.49,153.06c-2.08,6.34-3.08,8.55-3.72,13.2,6.71,1.94,7.09-3.66,8-6.62C127.76,154.13,124.49,153.06,124.49,153.06Z"/><path class="cls-8" d="M121.33,82c7.83-3.53,13.55-5.33,20.78-6.06-10.87-3.82-6.23-9-12.42-3.33S121.33,82,121.33,82Z"/><path class="cls-7" d="M184.76,158.36c.82,0,1.43,1.2,1.36,2.58s-.79,2.48-1.62,2.43-1.43-1.2-1.36-2.58S183.94,158.31,184.76,158.36Z"/><path class="cls-2" d="M169.4,177.31c-4.53,2.95-16.65,13.87-22.92,21.31a14.28,14.28,0,0,0-2.28-5c2.75-2.68,5.58-5.4,8.23-7.83a4.69,4.69,0,0,0,2.9,1.05c1.72.18,3.15-.12,3.21-.67l.41-3.84c0-.27-.29-.55-.81-.79l.09-.83a36,36,0,0,1,3.53-2.61c5.62-3.43,5.63-9,5.19-13.61a33.6,33.6,0,0,1,6.22,7.05A8.3,8.3,0,0,1,169.4,177.31Z"/><path class="cls-3" d="M190,146.7c-1.06,1-2,2-2.94,2.78h0l-.74.66-.72.63-.7.59-.7.56-.55.43-.55.41c-.55.4-1.1.78-1.67,1.14-.29.19-.59.37-.89.54s-.73.43-1.1.63-.52.28-.79.41l-.83.41a48,48,0,0,1-5.74,2.28l.42,2.64,0,.26c.29,1.46.52,2.82.68,4.09.07.55.13,1.08.17,1.6,0,0,0,.09,0,.13a0,0,0,0,0,0,0v0s0,0,0,0c0,.17,0,.34,0,.5s0,.17,0,.25v.08a0,0,0,0,1,0,0c0,.11,0,.22,0,.33h0c0,.41,0,.8,0,1.18,0,.23,0,.46,0,.69,0,.05,0,.11,0,.16a.22.22,0,0,1,0,.08.28.28,0,0,0,0,.09v0a2.4,2.4,0,0,1,0,.28h0s0,.08,0,.13c0,.23-.06.45-.1.67a2.74,2.74,0,0,1-.09.39l0,.1a3,3,0,0,1-.15.59c0,.17-.1.35-.16.52l-.09.25-.11.24h0c-.08.19-.16.37-.25.55l-.3.54,0,0c-.09.15-.19.3-.29.44h0c-.11.15-.22.3-.35.45s-.24.27-.37.4a8.59,8.59,0,0,1-1.55,1.28c-.34.22-.72.48-1.13.78,0,0,0,0-.05,0l-1.45,1.11-.12.1-.12.1h0l0,0c-.13.09-.27.2-.4.31-2.37,1.9-5.32,4.47-8.32,7.27-.69.64-1.39,1.3-2.08,2s-1.44,1.38-2.14,2.08c-.35.34-.7.69-1,1-1.21,1.21-2.37,2.41-3.43,3.56l-.7.76-.65.72-.06.08c-.42.47-.81.93-1.19,1.38a14.39,14.39,0,0,1,.29,1.87l-.63-1.47,0-.05-2.19-5.13c-1.44,1.4-2.84,2.79-4.18,4.11l-1.95,1.93-1.23,1.22-.88.88c-.28.27-.56.54-.82.81l-1,1-24,19.2-.05,0c10.91,2.19,26.27,4.28,31.43.06,3.57-2.92,8.92-8.53,14.73-14.83a.12.12,0,0,0,.05-.05l2-2.14s0,0,0,0l6.94-7.6a.12.12,0,0,0,.05,0l.75-.82a.52.52,0,0,0,.1-.11c2-2.2,4-4.36,5.94-6.38,0,0,0,0,0,0,.52-.56,1-1.1,1.55-1.63a96.52,96.52,0,0,1,10.65-10.08c2.54-1.85,3.77-6.75,4.44-12.28,0,0,0-.07,0-.1.29-2.5.47-5.13.61-7.66,0-.46,0-.91.08-1.36a.65.65,0,0,1,0-.14c.12-2.47.2-4.8.32-6.77.07-1.19.16-2.25.27-3.13.06-.47.12-.88.2-1.23ZM183.27,162l0-.14a.19.19,0,0,1,0-.07s0,0,0,0a.5.5,0,0,0,0-.12,1.79,1.79,0,0,1,0-.23.13.13,0,0,1,0-.06.53.53,0,0,0,0-.13,4.17,4.17,0,0,1,0-.5,1.23,1.23,0,0,1,0-.19,2.87,2.87,0,0,1,.05-.31,3.59,3.59,0,0,1,.08-.35v0a3.62,3.62,0,0,1,.13-.35,1.92,1.92,0,0,1,.18-.35l.1-.15a.58.58,0,0,1,.11-.15l.11-.11a1.12,1.12,0,0,1,.49-.32l.15,0h.19l.15,0,.1,0a.52.52,0,0,1,.13.06.42.42,0,0,1,.14.09.79.79,0,0,1,.2.17l.15.18h0a3,3,0,0,1,.15.26l0,.06,0,.08.06.14.06.15s0,0,0,0l0,.12a.25.25,0,0,0,0,.07l.06.38a4.54,4.54,0,0,1,0,.74V161c0,.12,0,.24,0,.36l-.06.31a3.57,3.57,0,0,1-.1.35,2.52,2.52,0,0,1-.12.29,2.84,2.84,0,0,1-.3.52,1.21,1.21,0,0,1-.16.16h0a1.35,1.35,0,0,1-.19.16.82.82,0,0,1-.17.11l-.14.06a.78.78,0,0,1-.34.05.91.91,0,0,1-.54-.21l-.12-.1a1.36,1.36,0,0,1-.22-.25,2.27,2.27,0,0,1-.17-.31A2.56,2.56,0,0,1,183.27,162Z"/><path class="cls-3" d="M143.11,191.9a4.34,4.34,0,0,1-.5-1.17Z"/><path class="cls-3" d="M143.11,191.9c.3.51.69,1.06,1.1,1.68l-.27.26Z"/><path class="cls-3" d="M146.15,199l-2.21-5.18.27-.26a14.46,14.46,0,0,1,2.28,5C146.37,198.76,146.25,198.89,146.15,199Z"/><path class="cls-3" d="M146.77,200.5l-.63-1.47.33-.4A12.4,12.4,0,0,1,146.77,200.5Z"/><g id="LINKY"><path class="cls-10" d="M186.74,93.94c.27,6.7-3.38,15.18-.93,22.62,4.67,2.36,8.19,8.22,8.8,14.79.76,8.19-2.45,12.78-4.61,15.12-1.34,5.8.2,28.32-6,32.83-9.18,6.71-32.86,35.64-42.8,43.77-8.31,6.79-43.07-2.76-43.07-2.76l-28-133.49,41.39-44.25,11-.59,16,4.64c-.81,5.53-4.35,9.56-4.48,15.4,9.28-4.05,16.65-6.45,20.06-2.12,3.61,4.57,19.6,12.79,22.35,14.64C182.57,78.61,186.38,85.06,186.74,93.94Z"/><path class="cls-10" d="M161.41,81.4c.49-5.75,6.94-12.88,14.19-7.53"/><path d="M184.75,132.07a19.65,19.65,0,0,0,1.37,5.08,9.14,9.14,0,0,0,1.23,2.15,3.39,3.39,0,0,0,.76.72,1.08,1.08,0,0,0,.63.21,1,1,0,0,0,.59-.34,3.64,3.64,0,0,0,.6-.89,8.16,8.16,0,0,0,.7-2.43,19.29,19.29,0,0,0-1.53-10.49,8.55,8.55,0,0,0-1.37-2.13,3.42,3.42,0,0,0-.83-.69,1.08,1.08,0,0,0-.66-.15,1.13,1.13,0,0,0-.54.39,3.49,3.49,0,0,0-.52.9,9.45,9.45,0,0,0-.57,2.41A19.36,19.36,0,0,0,184.75,132.07Zm-2.48.37a21.94,21.94,0,0,1,0-6,10.7,10.7,0,0,1,.87-3,5.66,5.66,0,0,1,1-1.47,3.22,3.22,0,0,1,1.84-1,3.16,3.16,0,0,1,2,.49,5.15,5.15,0,0,1,1.28,1.16,11.43,11.43,0,0,1,1.56,2.65,24.31,24.31,0,0,1,1.68,11.52,11.35,11.35,0,0,1-.73,3,5.11,5.11,0,0,1-.9,1.47,3.18,3.18,0,0,1-1.79,1,3.22,3.22,0,0,1-2-.43,5.44,5.44,0,0,1-1.35-1.13,10.45,10.45,0,0,1-1.69-2.64A21.74,21.74,0,0,1,182.27,132.44Z"/><path d="M184.48,132a11.3,11.3,0,0,0,.78,2.93,5.09,5.09,0,0,0,.68,1.22,1.17,1.17,0,0,0,.61.48c.06,0,.36-.18.54-.59a4.45,4.45,0,0,0,.41-1.38,11.18,11.18,0,0,0,0-3.11,11.41,11.41,0,0,0-.88-3,4.54,4.54,0,0,0-.79-1.2c-.3-.34-.64-.46-.69-.41a1.24,1.24,0,0,0-.44.64,5,5,0,0,0-.3,1.36A11.09,11.09,0,0,0,184.48,132Zm-2,.29a13.08,13.08,0,0,1,0-3.59,6.23,6.23,0,0,1,.55-1.84,3.63,3.63,0,0,1,.62-.92,2.15,2.15,0,0,1,1.23-.65,2.1,2.1,0,0,1,1.33.32,3.41,3.41,0,0,1,.81.73,6.88,6.88,0,0,1,.94,1.62,12.81,12.81,0,0,1,.91,3.39,12.48,12.48,0,0,1,.09,3.51,6.89,6.89,0,0,1-.44,1.82,3.39,3.39,0,0,1-.56.93,2.08,2.08,0,0,1-1.18.69,2.21,2.21,0,0,1-1.36-.27,3.43,3.43,0,0,1-.86-.71,6.35,6.35,0,0,1-1-1.61A13,13,0,0,1,182.5,132.26Z"/><path class="cls-11" d="M90.32,97.17c20.21-4.75,58.53-29,74-13.34s-.46,43.34-9.44,49.68c-7.93,1.5-14.2,1.54-21.25,2.33"/><path d="M134,94.91a61.41,61.41,0,0,1,6-1.42,41.3,41.3,0,0,1,6.2-.72,30.31,30.31,0,0,1,6.3.33,18.64,18.64,0,0,1,6.05,2.11,13.57,13.57,0,0,1,4.73,4.4,14.75,14.75,0,0,1,2.2,6A25.73,25.73,0,0,1,164,117.8a31.1,31.1,0,0,0,.15-12,12.74,12.74,0,0,0-6.47-9,16.62,16.62,0,0,0-5.48-1.72,28.71,28.71,0,0,0-5.87-.25,61.25,61.25,0,0,0-11.79,2Z"/><path class="cls-11" d="M140.38,94.84c-9.27.93-18.33,5-30.5,9-5.88,2-17.28,3.2-16.52,9.54.69,5.75,7.06,15.32,11.46,18.8,7,5.48,24.67,4.9,37,2.38,6.89-1.4,12-6.74,14.66-12C165,105.83,148.44,94,140.38,94.84Z"/><path class="cls-10" d="M167.49,115.64s13.09-1.89,18.29,1"/><path class="cls-10" d="M190,146.49c-4.88,4.78-7.65,7.18-12.21,9.35-5.21,2.48-12,4.57-15.16,3.39"/><path class="cls-11" d="M166.58,159.65c-.09,4.82,3.09,13.52-4.82,18.35-5.79,3.53-20.63,18.56-27.93,25.76"/><path class="cls-11" d="M139.21,161.09s-8.08,1.4-4.83,12.67"/><path class="cls-11" d="M154.8,133.54s6.92,7.61,8.59,10.46.55,6.7-.84,15.25c-4.24,2.31-14,3.37-21.44,2.27-4.35-.65-3.19-5.19-7.73-7.9-5.18-3.08-17.21-3.33-17.21-3.33"/><path d="M172.49,161.08a35.31,35.31,0,0,1,1.25,6.3,13.52,13.52,0,0,1-.7,6.52,8.21,8.21,0,0,1-1.93,2.81,9.74,9.74,0,0,1-1.33,1.07c-.43.3-.85.58-1.27.9-1.68,1.26-3.31,2.61-4.91,4s-3.18,2.81-4.73,4.26-3.11,2.88-4.64,4.36a126.31,126.31,0,0,0-8.72,9.22l-.79-.61a89.56,89.56,0,0,1,8.54-9.59q4.53-4.55,9.42-8.7c1.63-1.39,3.28-2.74,5-4,.43-.32.9-.62,1.34-.93a9.59,9.59,0,0,0,1.18-.89,7.28,7.28,0,0,0,1.74-2.36,13.84,13.84,0,0,0,1-6C173,165.32,172.74,163.2,172.49,161.08Z"/><path d="M157.2,153.85c-.07,1.68.68,3.08,1.68,3.12s1.86-1.29,1.94-3-.68-3.08-1.68-3.12S157.27,152.16,157.2,153.85Z"/><path d="M183.14,160.73c-.07,1.39.54,2.54,1.36,2.58s1.55-1.05,1.61-2.43-.54-2.54-1.36-2.58S183.21,159.34,183.14,160.73Z"/><path d="M175.68,129.72c.27,1.52,1.22,2.62,2.12,2.46s1.41-1.52,1.14-3-1.22-2.62-2.12-2.46S175.41,128.2,175.68,129.72Z"/><path d="M163.87,95.67c.46,1.56,1.59,2.61,2.52,2.33s1.3-1.77.84-3.33-1.59-2.61-2.52-2.34S163.41,94.11,163.87,95.67Z"/><path class="cls-1" d="M165.1,96.37c.3,1,1,1.68,1.62,1.5s.84-1.13.54-2.14-1-1.68-1.62-1.5S164.8,95.37,165.1,96.37Z"/><path class="cls-1" d="M176.79,130.1c.23,1,.91,1.74,1.52,1.6s.91-1.08.68-2.1-.91-1.74-1.52-1.6S176.56,129.08,176.79,130.1Z"/><path class="cls-1" d="M183.65,161.35c-.05,1.05.42,1.92,1,2s1.16-.8,1.21-1.85-.42-1.92-1-1.95S183.69,160.3,183.65,161.35Z"/><path class="cls-1" d="M158.09,154.68c-.05,1.15.46,2.1,1.14,2.13s1.27-.87,1.32-2-.46-2.1-1.14-2.13S158.14,153.53,158.09,154.68Z"/><path d="M100.49,99.81a3.28,3.28,0,1,0,2.92-3.6A3.27,3.27,0,0,0,100.49,99.81Z"/><path class="cls-3" d="M102.07,100.73A2.18,2.18,0,1,0,104,98.34,2.18,2.18,0,0,0,102.07,100.73Z"/><path d="M155.81,73.61a2.12,2.12,0,1,0,1.78-2.78A2.35,2.35,0,0,0,155.81,73.61Z"/><path class="cls-3" d="M156.75,74.16a1.54,1.54,0,1,0,1.29-2A1.71,1.71,0,0,0,156.75,74.16Z"/><path class="cls-11" d="M168.91,73c9.73,9,14.09,19.77,11.8,32.15-.44,2.35-.14,4.83.19,9.64"/><path class="cls-2" d="M147.82,170.58l-.37-.14.38.08S147.82,170.56,147.82,170.58Z"/><path class="cls-3" d="M146.71,170.23l.73.21.37.14a.13.13,0,0,0,0-.06,6.13,6.13,0,0,0,1.42.12L144.14,186h0c-.1.29-1.26.17-2.59-.27l-.05,0,5.2-15.43S146.65,170.24,146.71,170.23Z"/><path class="cls-2" d="M139.31,184.4l5.1-15.37a7.08,7.08,0,0,0,2.29,1.2h0c-.06,0,0,.06,0,.06l-5.2,15.43C140.2,185.27,139.21,184.69,139.31,184.4Z"/><path class="cls-3" d="M155.72,182.08V182c1.28.14,2.33.06,2.36-.17h0l0-.41c.53.24.84.52.81.79l-.41,3.84c-.05.46-1.26.7-2.58.68l.36-4.29Z"/><path class="cls-2" d="M153.46,181l0,.33h0c0,.23,1,.53,2.29.67h0v.06l.59.38-.35,4.35a4.85,4.85,0,0,1-.63-.07c-1.72-.18-3.06-.78-3-1.33l.41-3.84C152.76,181.34,153,181.15,153.46,181Z"/><path class="cls-3" d="M158.09,181.85c0,.23-1.08.3-2.36.17l1.53-15.24.7.06a.13.13,0,0,1,0-.06,9.07,9.07,0,0,0,1.71-.07l-1.54,14.73,0,.41Z"/><path class="cls-2" d="M158,166.78a.13.13,0,0,1,0,.06l-.7-.06L155.72,182h0c-1.29-.14-2.31-.44-2.29-.67h0l0-.33L155,166.2a9.46,9.46,0,0,0,2.3.52Z"/><path class="cls-3" d="M158,166.78c.54-4.51-1-5-2.76-5.42a27.82,27.82,0,0,0,6.31-1.63l-.68,6.36c0,.29-.48.5-1.17.61A8.09,8.09,0,0,1,158,166.78Z"/><path class="cls-2" d="M158,166.78l-.65-.05a9.57,9.57,0,0,1-2.3-.52c-.65-.25-1-.55-1-.84l.41-3.89.79-.12C157,161.78,158.5,162.27,158,166.78Z"/><path class="cls-3" d="M145.84,161.9a52,52,0,0,0,7.41-.28l-2.8,8.46c-.11.33-.56.52-1.2.56a6.22,6.22,0,0,1-1.42-.12C148.59,168,147.17,164.24,145.84,161.9Z"/><path class="cls-2" d="M147.83,170.52l-.38-.08a2.4,2.4,0,0,0-.73-.21h0a7.08,7.08,0,0,1-2.29-1.2c-.49-.41-.74-.83-.63-1.17l2-6h.09C147.17,164.24,148.59,168,147.83,170.52Z"/><path class="cls-2" d="M147.45,170.44l-.73-.21A3.63,3.63,0,0,1,147.45,170.44Z"/><polygon class="cls-8" points="156.69 166.59 155.16 181.72 154.54 182.16 153.98 186.46 153.35 186.25 153.77 181.91 154.47 181.59 156.1 166.5 155.74 166.28 155.86 163.41 156.17 166.31 156.69 166.59"/><polygon class="cls-8" points="146.1 166.47 145.8 169.85 146.16 170.09 141 184.99 140.27 184.88 145.43 169.91 145.16 169.53 146.1 166.47"/><path class="cls-12" d="M146.69,170.19a7.11,7.11,0,0,0,2.55.41L144.14,186h0c-.1.29-1.26.17-2.6-.27s-2.34-1-2.24-1.33L144.4,169A7.18,7.18,0,0,0,146.69,170.19Z"/><path class="cls-12" d="M153.43,181.32c0,.23,1,.53,2.28.66s2.35.06,2.37-.17h0l0-.41c.53.24.84.52.81.79l-.41,3.84c-.06.55-1.5.85-3.21.67s-3.06-.78-3-1.33l.41-3.84c0-.23.3-.41.73-.54l0,.33Z"/><path class="cls-12" d="M153.46,181,155,166.17a9.46,9.46,0,0,0,2.3.52,9.15,9.15,0,0,0,2.36,0l-1.54,14.73,0,.41h0c0,.23-1.09.31-2.37.17s-2.31-.44-2.28-.66h0Z"/><path class="cls-12" d="M154.41,161.45a29.18,29.18,0,0,0,7.11-1.75l-.68,6.36c0,.29-.48.5-1.17.61a9.15,9.15,0,0,1-2.36,0,9.57,9.57,0,0,1-2.3-.52c-.65-.25-1-.56-1-.84Z"/><path class="cls-12" d="M143.77,167.83l2-6a51.77,51.77,0,0,0,7.5-.28l-2.81,8.46c-.11.33-.56.52-1.2.56a7.08,7.08,0,0,1-2.55-.41,7.19,7.19,0,0,1-2.29-1.2C143.91,168.58,143.66,168.17,143.77,167.83Z"/></g><path class="cls-2" d="M155.66,200.82l5.41-5.34a2.05,2.05,0,0,0-.4-2.82l-.16-.15,1.39.47a2.79,2.79,0,0,1-.45,3.38l-4.39,4.33a2.8,2.8,0,0,1-3.95,0l-.27-.27A2.07,2.07,0,0,0,155.66,200.82Z"/><path class="cls-1" d="M152.62,196.19l4.39-4.33a2.79,2.79,0,0,1,4,0l.51.52a2.88,2.88,0,0,1,.43.56l-1.39-.47a2,2,0,0,0-2.66-.28l-5.41,5.34a2.05,2.05,0,0,0,.4,2.82l-.24-.25A2.77,2.77,0,0,1,152.62,196.19Z"/><path class="cls-3" d="M160.5,192.5l.16.15a2.05,2.05,0,0,1,.4,2.82l-5.41,5.34a2.39,2.39,0,0,1-3.22-3.25l5.41-5.34a2,2,0,0,1,2.66.28Z"/><path class="cls-2" d="M167.25,189.49l5.49-5.26a2.06,2.06,0,0,0-.36-2.83l-.16-.16,1.39.49a2.79,2.79,0,0,1-.51,3.37l-4.45,4.26a2.79,2.79,0,0,1-4-.09l-.27-.28C165.32,189.92,166.58,190.13,167.25,189.49Z"/><path class="cls-1" d="M164.29,184.81l4.45-4.26a2.79,2.79,0,0,1,3.95.09l.51.53a2.79,2.79,0,0,1,.42.57l-1.39-.49a2,2,0,0,0-2.65-.32l-5.49,5.26a2.06,2.06,0,0,0,.36,2.83l-.24-.25A2.81,2.81,0,0,1,164.29,184.81Z"/><path class="cls-3" d="M172.23,181.24c.05,0,.11.1.16.16a2.06,2.06,0,0,1,.36,2.83l-5.49,5.26a2.4,2.4,0,0,1-3.17-3.31l5.49-5.26a2,2,0,0,1,2.65.32Z"/><path class="cls-13" d="M18.38,30.17c-2.71-1.14-6.55-4-10.55-4.63,1.73-.35,4.3-.11,8,.19,2.09.75,4,1.46,5.24,1.77,6.14,1.48,12.85,2.62,18.07,6.44,6,4.41,11.06,10.78,13.08,17.89L49.34,55c-2.86-5.81-3.17-9.11-8.66-13.67C34.45,36.19,22.12,31.74,18.38,30.17Z"/><path class="cls-14" d="M4.81,29.49c.23-2.49,1.13-3.57,3-3.95,4,.63,7.84,3.5,10.55,4.63,3.73,1.57,16.06,6,22.3,11.2,5.49,4.56,5.8,7.86,8.66,13.67L16.77,91.44c1.92-9.68-7-20-10.83-28.53-.79-8,.19-18.5,0-23C5.7,34.17,4.27,35.09,4.81,29.49Z"/><path class="cls-15" d="M3.12,40.34C2.87,37-.74,26.42,2.53,24.11c2.79-2,8.6-.07,13.29,1.62-3.7-.3-6.27-.54-8-.19A8.31,8.31,0,0,0,3.27,26a8.4,8.4,0,0,1,4.55-.46C5.93,25.92,5,27,4.8,29.49c-.54,5.6.89,4.68,1.13,10.39.19,4.54-.78,15.09,0,23a24.61,24.61,0,0,1-1.11-3C3,53.46,3.62,46.92,3.12,40.34Z"/><path class="cls-16" d="M52.22,51.83c-2-7.11-7.06-13.48-13.08-17.89C33.92,30.12,27.22,29,21.07,27.5c-4.17-1-14.5-6.25-18.54-3.39-3.27,2.31.34,12.86.59,16.23.49,6.59-.15,13.12,1.7,19.58C7.43,69,18.92,80.62,16.76,91.45"/><path class="cls-17" d="M22.33,84.57c-3.59-9.89-9.54-17-12.11-22.13-1.28-2.53-1.5-8.41-1.52-10,0-2.79.8-6.13.4-10.3-.28-2.91-2-7.22-2.37-9.95-.23-1.7,1.65-1.27,2-1C20.75,39.34,28.38,39,35.51,42c3.33,1.39,1.05,6.37,4,8.49a15.85,15.85,0,0,1,4.82,6.23"/><path class="cls-7" d="M78.73,95.91a105.67,105.67,0,0,0,17.65-4.35C91.75,93.09,85.12,95.56,78.73,95.91Z"/><path class="cls-13" d="M96.72,132c4.79,3,8.18,4.69,11.22,10.66.27,2.47,8.41,25.44,4.19,26.14-14.52,2.4-20.85-.82-31-1.44,5.55-15.27,9.59-32.09,9.55-46C91.32,125.74,92.45,129.33,96.72,132Z"/><path class="cls-14" d="M166.8,8.67c-6.22,6.79-33.11,27.17-32.16,33.56-3.21-.68-5.61-1.24-7.32-1.65,3.44-4.07,7-7.23,11.19-11.78,5.31-5.8,10.63-8.62,16.53-13.87C158.68,11.69,171.09-4.26,176,3.22a17.62,17.62,0,0,1,2.45,6C174.75,1.81,172.36,2.6,166.8,8.67Z"/><path class="cls-13" d="M96.38,91.56C111,75.05,134.52,51.33,117.73,40.65c3.16.16,6.28.35,9.22.36l.38-.44c1.71.42,4.1,1,7.32,1.65-1-6.39,25.93-26.77,32.16-33.56,5.55-6.06,7.94-6.86,11.62.59.92,4.23.67,8.69,1.31,13.14.47,3.22,1.65,4.17,2.58,7.26.2.67.42,1.34.65,2a4.79,4.79,0,0,0-1.57,2.12c-1,2.86.92,6.25,4.44,7.93a16.32,16.32,0,0,1,.09,2.09c-.23,6.81-2.61,12.73-5.14,19.39-2.21,5.8-2.85,7.53-6.15,10.28-6.87-2.55-6.08,1.38-10.54,1.86-.86-11-18.77-7.79-26.13-8.3-2.4-.17-10-7-10-7a20.91,20.91,0,0,0-1.85,4.35c-1.33,4.9-5.79,8.11-9.74,10.94s-1.72,3.57,0,7.58c.75,1.75-9.67,4.51-10.86,5.13-.81.42-2,1-3.36,1.65l.17-.23S100,90.37,96.38,91.56Z"/><path class="cls-14" d="M123.51,49.75l0-.42a.09.09,0,0,0,0,0c0-.11,0-.23,0-.34s-.08-.53-.13-.79-.12-.52-.19-.77a6.75,6.75,0,0,0-.25-.76c-.09-.25-.19-.5-.3-.74s-.24-.48-.37-.72a4.05,4.05,0,0,0-.21-.35c-.07-.12-.14-.24-.22-.35s-.27-.4-.42-.59-.28-.36-.44-.54-.3-.35-.46-.51l-.67-.64-.06-.06-.55-.45c-.17-.14-.35-.28-.54-.41l-.13-.09-.22-.16c-.17-.12-.32-.24-.5-.35h0l-1.93-.09-1.91-.08-1.69,0q-1,0-2.1,0l-1.65,0-1.22,0c-.37,0-.73,0-1.1.06a3.44,3.44,0,0,0-.46,0l-1.17.09q-.77.07-1.53.18t-1.5.24a28.61,28.61,0,0,0-2.87.68c-.36.11-.71.22-1.06.35l-.31.11c-.36.13-.71.27-1.06.42s-.6.27-.9.42-.83.43-1.23.68-.55.34-.82.53l-.63.46c-.18.13-.35.27-.52.42s-.38.32-.56.49-.37.35-.55.53a4.59,4.59,0,0,0-.37.39c-.24.26-.48.54-.7.82l-.42.55c-.19.26-.37.53-.55.81l-.06-.09a0,0,0,0,0,0,0,1.85,1.85,0,0,0-.21-.33L88.43,48a.24.24,0,0,0-.06-.09,1,1,0,0,0-.19-.23.1.1,0,0,0-.05-.07l-.29-.33a5.33,5.33,0,0,0-.4-.42l-.56-.5a8.81,8.81,0,0,0-.94-.66c-.15-.1-.31-.19-.47-.28a12.26,12.26,0,0,0-3.32-1.23L81.51,44l-.25,0-.19,0-.57-.08a4.6,4.6,0,0,0-.52-.06c-.28,0-.58-.06-.87-.07l-.66,0c-.6,0-1.23,0-1.87,0l-.6,0-.31,0c-.33,0-.64,0-1,.07-.6,0-1.21.12-1.84.2-1,.14-2.08.32-3.14.53-.58.11-1.16.24-1.75.37l-1.22.3c-1.24.31-2.49.66-3.74,1.05l-1.21.38-.64.21-1.16.4c-2.89,1-5.67,2.14-8.17,3.27l-1.16.54-.77.37c-.62.29-1.22.59-1.79.88-1.89,1-3.48,1.89-4.68,2.67l-.15.1c-10.18,6.74-10.14,18.25-18.6,25.75a34.88,34.88,0,0,0-2.73,2.7q-.35.38-.66.75l-.55.66c-.21.26-.42.53-.62.8s-.4.53-.58.8-.38.55-.56.83a25.29,25.29,0,0,0-1.34,2.29c-.3.57-.58,1.16-.83,1.75a0,0,0,0,0,0,0c-.06.14-.13.28-.18.43s-.21.49-.3.74-.11.29-.16.43-.17.48-.25.73-.25.74-.36,1.12-.16.58-.23.87-.22.86-.3,1.3c-.06.24-.11.49-.15.73s-.08.4-.11.61c-.15.87-.26,1.75-.34,2.65,0,.2,0,.4,0,.61s0,.6-.06.91,0,.61,0,.92,0,.72,0,1.09q0,1.15.06,2.34c0,.59.07,1.19.12,1.78s.11,1.21.18,1.82.13,1.06.21,1.6.2,1.39.32,2.1c.8,4.87,7.59,20.95,5.13,24.38-.8,1.12-1.6,2.25-2.37,3.39-.31.46-.62.91-.92,1.37s-.6.91-.89,1.37l-.83,1.36c-.25.41-.48.81-.71,1.22l-.45.81c-.22.4-.42.8-.62,1.19s-.39.8-.57,1.19l-.34.76a.93.93,0,0,1-.05.1v0c-.1.23-.19.45-.28.68s-.22.57-.33.85c-.15.43-.3.86-.43,1.29s-.22.71-.31,1.07a.79.79,0,0,1,.7-.35l.28,0a3.47,3.47,0,0,1,.65.21l.37.18a2.26,2.26,0,0,1,.26.14l.43.27.46.3a42.78,42.78,0,0,1,3.89,3.25c.21.18.41.37.62.58l.79.73.5.48.71.67c2,1.94,4.15,4,6.09,5.74l.76.67,0,0c.16.15.33.29.49.42.33.28.64.55.95.79l.53.42c1.91,1.47,3.44,2.27,4.25,1.78,4.46-2.21,15.49-.54,19.36-1l.35.27.33.23a2.92,2.92,0,0,0,.32.21,4.94,4.94,0,0,0,.59.32,1.78,1.78,0,0,0,.29.12,3.43,3.43,0,0,0,1.39.24.59.59,0,0,0,.19,0,3.55,3.55,0,0,0,.47-.09,4,4,0,0,0,.45-.15l.29-.13.15-.08.14-.08.42-.26.43-.31.33-.25c.54-.44,1.1-.92,1.71-1.38l.1-.07.2-.14q.36-.26.75-.48c.13-.07.26-.15.4-.21l.15-.07a4.1,4.1,0,0,1,.48-.21h0l.38-.13a6.23,6.23,0,0,1,.62-.15l.59-.08a5.17,5.17,0,0,1,.57,0l.62,0,.2,0h0l.27,0,.18,0a5.78,5.78,0,0,1,.57.12c.22,0,.45.12.69.2l.92-.14s0,0,0,0l.48-.08.42-.06h0c1.21-.17,2.37-.3,3.47-.39a53.18,53.18,0,0,1,7.92-.1l.51-1.43.36-1,.33-1c.23-.66.45-1.33.67-2l.12-.36c.12-.34.23-.68.34-1s.22-.69.33-1c0-.1.07-.19.1-.29.28-.92.57-1.84.84-2.76h0l.21-.72q.42-1.42.81-2.85l0-.09c.18-.68.37-1.36.55-2,.08-.3.16-.6.23-.91,0-.13.07-.27.1-.4.15-.55.29-1.11.42-1.66a.36.36,0,0,0,0-.1c.18-.75.36-1.5.53-2.25,0-.17.08-.33.11-.5.19-.81.36-1.62.53-2.42q.3-1.45.57-2.91c.16-.87.31-1.74.45-2.6l.21-1.31c.09-.61.18-1.22.26-1.82s.16-1.21.23-1.81.13-1.11.19-1.66c.07-.71.14-1.42.2-2.12,0-.53.08-1.06.11-1.59s.07-1.11.09-1.66c.06-1.24.09-2.47.08-3.68-.18-1.28-.31-2.63-.46-4,0-.42-.09-.82-.15-1.2,0-.19,0-.38-.07-.56-.06-.42-.12-.82-.19-1.19s-.11-.56-.17-.82a12.89,12.89,0,0,0-1.23-3.39,13.38,13.38,0,0,0-.75-1.22c-.43-.62-.92-1.26-1.51-2-.38-.48-.82-1-1.29-1.54l.42-.15c4.23-1.64,4.57-4.84,5.07-7.64l.42-.43.25-.26h0l.17-.18h0l2.14-2.18h0l3-3,1-1.18L100,87.49c2.27-2.53,4.65-5.18,7-7.89l.93-1.09.12-.13c.27-.33.56-.66.84-1,.69-.82,1.37-1.64,2-2.47l.54-.67c.55-.67,1.08-1.35,1.6-2l1-1.35c.34-.45.68-.9,1-1.35l.48-.67c.69-.95,1.33-1.9,2-2.84.26-.39.5-.78.74-1.17a47.51,47.51,0,0,0,2.57-4.58c.21-.43.41-.86.6-1.28s.37-.85.53-1.27l.24-.62c.08-.21.15-.42.22-.62q.21-.63.39-1.23c.06-.21.11-.41.16-.61s.1-.4.14-.6.07-.32.1-.47,0-.25.07-.37l.06-.38c0-.24.07-.48.1-.72.05-.52.08-1,.08-1.54C123.54,50.28,123.53,50,123.51,49.75Zm-81.66,66.4c-1.19,2-2.55,4.28-3.93,6.33-.82,1.23-1.66,2.39-2.47,3.43a21.69,21.69,0,0,1-2.6,2.82,2.05,2.05,0,0,1-.23.2c-1.68,1.39-3.06,1.59-3.8-.31l-.15-.38a44.19,44.19,0,0,0-2.05-4.58h0a12.14,12.14,0,0,0-6.53-6.09l-.41-.19-.18-.08,3.67-11.12h0l.22-.67,1.06.15h0L46,108.57v0l-.11.22-.17.32c-.33.64-.94,1.81-1.74,3.26-.36.67-.77,1.38-1.2,2.15h0Zm8.84,43.51q.14-.53.24-1v0l0-.13c0-.22.09-.44.13-.66s.1-.5.13-.75.11-.72.15-1.07.07-.6.09-.9a2.4,2.4,0,0,0,0-.37c0-.22,0-.45,0-.67h0c0-.2,0-.38,0-.57a17.34,17.34,0,0,0,0-2.17c0-.17,0-.34,0-.5s0-.12,0-.17,0-.12,0-.17a6,6,0,0,0-.08-.61c0-.17-.05-.34-.08-.51a8.06,8.06,0,0,0-.16-.88,14.23,14.23,0,0,0-.43-1.65,14.52,14.52,0,0,0-1-2.54,5.12,5.12,0,0,0-.3-.57,11,11,0,0,0-.67-1.09c-.13-.19-.26-.38-.4-.56a3.81,3.81,0,0,0-.24-.32l-.37-.45q-.31-.37-.66-.72c-.13-.14-.27-.27-.41-.4a6.23,6.23,0,0,0-.55-.49l-.62-.5-.33-.24a11.61,11.61,0,0,0-1.33-.86c-.24-.14-.49-.28-.75-.4s-.49-.25-.75-.36a16.58,16.58,0,0,0-2.76-.94c-.24-.07-.49-.13-.74-.18l-.13,0c-.15,0-.31-.07-.47-.09-.45-.09-.9-.16-1.37-.21l-.62-.07-.51-.05c-.8-.06-1.63-.09-2.48-.07,1-.13,1.94-.29,2.9-.47l0,0h0c.93-.17,1.86-.36,2.78-.58l.45-.12h0l.22-.05.26-.07c.92-.22,1.83-.47,2.74-.73l1.89-.56c1.38-.43,2.74-.89,4.08-1.37.72-.25,1.44-.52,2.15-.78l.48-.18c.85-.32,1.68-.64,2.5-1,1.75-.68,3.44-1.37,5-2,2.35-1,4.54-1.84,6.52-2.55h0l.4-.14h0c.66-.23,1.29-.44,1.89-.62q.42-.14.84-.24L69,124l.38-.1h0l.2-.05a14,14,0,0,1,1.42-.27,1.77,1.77,0,0,1,.32,0,1.66,1.66,0,0,1,.32,0l.09,0a.37.37,0,0,1,.17,0,.67.67,0,0,1,.23.1l.08,0a1.88,1.88,0,0,1,.24.18,2.34,2.34,0,0,1,.39.49,2.71,2.71,0,0,1,.23.45,2.49,2.49,0,0,1,.11.29,3.19,3.19,0,0,1,.13.44h0c0,.1,0,.2.07.3a7.28,7.28,0,0,1,.16,1c0,.18,0,.38.05.57a21.31,21.31,0,0,1,0,2.28q0,.51-.06,1c0,.22,0,.44,0,.66s0,.43-.06.65-.07.69-.11,1-.08.69-.13,1-.07.48-.1.72-.07.5-.11.75-.07.48-.11.72l-.3,1.76-.06.29c-.07.4-.15.81-.22,1.21L72.09,141l-.21,1c-.08.41-.17.82-.26,1.23-.21,1-.43,1.95-.66,2.9l-.27,1.18q-.33,1.35-.66,2.64s0,.07,0,.1c-.09.33-.17.66-.25,1l-.21.78a2.81,2.81,0,0,1-.08.31c-.06.24-.13.48-.19.72s-.17.66-.26,1c-.13.5-.26,1-.39,1.45s-.19.7-.29,1-.14.51-.21.75c-.52,1.87-.95,3.31-1.19,4.1,0,.16-.09.3-.12.41s-.08.27-.08.27l-10-1.32-.91-.12L53,160l-1.09-.15-.75-.09Z"/><path class="cls-13" d="M66.73,161.77l-16.05-2.1c3.32-13.36-2.92-24.26-17.51-24,15.55-2.09,30-10.93,37.85-12S66.73,161.77,66.73,161.77Z"/><path class="cls-13" d="M59.63,113.14S31.42,123.67,27.8,129.52C22.89,123,23,119,18.34,116.88l5-11.38Z"/><path class="cls-13" d="M102.37,89.43l-.17.23a69.38,69.38,0,0,0-8,4.39c.7-.81,1.43-1.64,2.18-2.48C100,90.37,102.37,89.43,102.37,89.43Z"/><path class="cls-13" d="M79.84,92.75c-8.21.56-21.88-3.89-26.7-7.8A58.22,58.22,0,0,0,80.47,89.3c6.23-.57,24.11-5.87,28.43-11.91C110.71,85.27,91.82,91.93,79.84,92.75Z"/><path class="cls-10" d="M20.27,138.61c2.45-3.43-4.33-19.51-5.13-24.38-2.22-13.12-.72-24.29,9.53-33.38,8.46-7.5,8.42-19,18.6-25.75,8.49-5.63,38.53-18.48,45.67-6.37C96.25,37.27,113.5,41,127,41c3.55-4.3,7.26-7.5,11.57-12.22,5.31-5.8,10.63-8.62,16.53-13.87C158.7,11.69,171.11-4.26,176,3.22c3.86,5.9,2.8,12.54,3.76,19.19.47,3.22,1.65,4.17,2.58,7.26.2.67.42,1.34.65,2a4.79,4.79,0,0,0-1.57,2.12c-1,2.86.92,6.25,4.44,7.93a16.32,16.32,0,0,1,.09,2.09c-.23,6.81-2.61,12.73-5.14,19.39-2.21,5.8-2.85,7.53-6.15,10.28-6.87-2.55-6.08,1.38-10.54,1.86-.85-11-18.77-7.79-26.13-8.3-2.4-.17-10-7-10-7a20.91,20.91,0,0,0-1.85,4.35c-1.33,4.9-5.79,8.11-9.74,10.94s-1.72,3.57,0,7.58c.75,1.75-9.67,4.51-10.86,5.13-3.51,1.83-14,6.3-15,9.8-1.7,6.23.24,5.66-5.7,7.67,3.82,4.43,4.71,5.88,5.36,11.9.67,6.2,1,11.17,6.48,14.66,4.79,3,8.18,4.69,11.22,10.66.27,2.47,8.41,25.44,4.19,26.14-19.83,3.27-24.37-3.94-44.2-.67-8-2.6-8.59,7.45-14.66,2.49-3.88.42-14.9-1.25-19.36,1-3.48,2.1-20.47-19.66-22.76-16.33C12.66,149.56,16.42,144,20.27,138.61Z"/><path d="M95.94,58.68a23.13,23.13,0,0,0-10.68-1.36,43.68,43.68,0,0,0-5.39.74,13.43,13.43,0,0,0-5,2,9.14,9.14,0,0,1,4.6-3.47,22.16,22.16,0,0,1,5.64-1.28,15.23,15.23,0,0,1,5.85.41A11.18,11.18,0,0,1,95.94,58.68Z"/><path class="cls-18" d="M85.49,56.32a26.46,26.46,0,0,1,3.42-7.78"/><path class="cls-19" d="M50.72,90.32a42.74,42.74,0,0,1-7.37.34L40,90.54c-1.07,0-2.11-.08-3,0-.41,0-1,.07-1.51.09s-1,.08-1.53.11c-1,.07-2,.17-3,.29a24.34,24.34,0,0,0-2.94.48,13.18,13.18,0,0,0-1.5.38c-.5.13-1,.38-1.5.5l-.69.17a.9.9,0,0,1-1.09-.66,1,1,0,0,1,0-.45,7,7,0,0,1,.92-2.09,11.21,11.21,0,0,1,1.35-1.7,19.74,19.74,0,0,1,1.64-1.39A15.92,15.92,0,0,1,29,85.15a19.52,19.52,0,0,1,3.88-1.49c.66-.14,1.33-.3,2-.4l1-.15A5.7,5.7,0,0,1,37,83a20.93,20.93,0,0,1,4.21.26,26.85,26.85,0,0,1,3.79.89,25.69,25.69,0,0,1,6.89,3.15,1.62,1.62,0,0,1-.63,3Z"/><path class="cls-20" d="M174,66.3l4.65-14c3.32-10-1.89-17.73-4.16-22.74S172.29,18.93,172,14.81s-5.78,1.16-8.6,3.75c-5.22,4.81-6.38,5.8-7.55,7.4-2.39,3.27-4.14,4.34-6.62,6.65s-.19,2.91-4.37,6c-4.39,3.21,8.13,11.77,13.5,14.37,3.9,1.89,7.93,4.14,9.58,11.92"/><path d="M174,66.3c.69-2.63,1.46-5.24,2.19-7.85l1.16-3.91c.38-1.3.8-2.61,1.1-3.88a20.34,20.34,0,0,0,.28-7.81,28.46,28.46,0,0,0-2.42-7.5c-1.09-2.43-2.53-4.72-3.49-7.45a34,34,0,0,1-1.58-8.21l-.31-4.07c0-.31-.05-.73-.09-.92a.91.91,0,0,0-.11-.35s.14,0,0,0a2.16,2.16,0,0,0-.62.2A15.7,15.7,0,0,0,167,16.76c-1,.86-2,1.78-3,2.71-2,1.85-4,3.69-5.88,5.54a18,18,0,0,0-1.24,1.42c-.38.51-.82,1.12-1.27,1.65a25.8,25.8,0,0,1-3,3l-1.54,1.34-.75.66c-.25.23-.49.45-.67.64A2.79,2.79,0,0,0,149,35c-.09.28-.19.65-.35,1.06A5,5,0,0,1,148,37.2a9.85,9.85,0,0,1-1.64,1.65l-.85.65a1.15,1.15,0,0,0-.34.38,1.25,1.25,0,0,0,.05,1,7.26,7.26,0,0,0,.84,1.48,34.11,34.11,0,0,0,5.45,5.66,29.2,29.2,0,0,0,3.3,2.32c1.12.75,2.23,1.51,3.38,2.22a36.92,36.92,0,0,1,3.56,2,13.22,13.22,0,0,1,3,2.77,17.29,17.29,0,0,1,3.17,7.45,17.32,17.32,0,0,0-3.34-7.31A17.23,17.23,0,0,0,158,53a29.33,29.33,0,0,1-3.7-1.79c-1.17-.71-2.28-1.5-3.46-2.21-2.3-1.5-4.7-2.94-6.56-5.26a8.16,8.16,0,0,1-1.19-2,3.27,3.27,0,0,1,1.06-4l.76-.6a7.47,7.47,0,0,0,1.22-1.24,4,4,0,0,0,.62-1.52,5.39,5.39,0,0,1,.52-1.2,6.14,6.14,0,0,1,.77-1c.28-.3.55-.55.8-.77l.77-.69,1.53-1.34a25.38,25.38,0,0,0,2.73-2.76c.43-.5.79-1,1.22-1.56a20.84,20.84,0,0,1,1.44-1.64c2-2,4-3.73,6-5.57,1-.91,2-1.85,3.07-2.75a16.92,16.92,0,0,1,3.6-2.47,4.4,4.4,0,0,1,1.32-.38,2.75,2.75,0,0,1,.92.08,2,2,0,0,1,.91.57,2.82,2.82,0,0,1,.66,1.5c.07.48.06.74.09,1.11l.23,4.05a32.25,32.25,0,0,0,1.34,7.76c.78,2.43,2.22,4.79,3.29,7.34a29.36,29.36,0,0,1,2.36,8,20.63,20.63,0,0,1-.61,8.35C177.94,56.21,176,61.22,174,66.3Z"/><path d="M127,39.76a30.55,30.55,0,0,1,6.41.63,23.75,23.75,0,0,1,6.12,2.28,40.69,40.69,0,0,1,10,7.85c1.47,1.51,2.85,3.08,4.2,4.62l4.1,4.61c1.36,1.54,2.75,3.06,4.15,4.56a37.44,37.44,0,0,0,4.48,4.24,17,17,0,0,1-2.7-1.58c-.85-.6-1.71-1.21-2.51-1.86-1.63-1.3-3.19-2.67-4.72-4.07-3.06-2.78-5.95-5.85-8.84-8.64-.74-.69-1.48-1.38-2.25-2s-1.54-1.29-2.32-1.92a40.14,40.14,0,0,0-5-3.25,27,27,0,0,0-11.29-3Z"/><path class="cls-15" d="M35.45,137.86a22.5,22.5,0,0,1-4,1.49c-1.23.37-2.32.69-3.35,1.08a33.07,33.07,0,0,0-3.13,1.4,39.28,39.28,0,0,1-3.78,1.76A8.11,8.11,0,0,1,23,139.44a8.75,8.75,0,0,1,3.77-2.75,9.25,9.25,0,0,1,4.57-.47A9.38,9.38,0,0,1,35.45,137.86Z"/><path class="cls-15" d="M79.22,48.26c-12.83-.64-30.47,7-34.62,11.29s-9,17.73-15.34,21.35a89.62,89.62,0,0,1,11-3.54,3.8,3.8,0,0,0-1.82-2.07c6-1.55,11.24.42,12.9-1.07C56.45,69.64,52.15,58.05,79.22,48.26Z"/><path class="cls-15" d="M58,82.75a34.92,34.92,0,0,0,5.38.48c1.79,0,3.58,0,5.37,0s3.58-.09,5.36-.16,3.55-.22,5.31-.38a94.88,94.88,0,0,0,10.41-1.89c1.73-.38,3.45-.84,5.15-1.34a19.49,19.49,0,0,0,4.94-2,8.78,8.78,0,0,1-2,1.84,19.12,19.12,0,0,1-2.37,1.43,48.36,48.36,0,0,1-5.09,2.13,51.39,51.39,0,0,1-5.31,1.44c-.9.19-1.8.37-2.7.52s-1.85.24-2.76.32a53.18,53.18,0,0,1-5.49.18c-1.83,0-3.65-.12-5.47-.29A35,35,0,0,1,58,82.75Z"/><path class="cls-21" d="M26.44,120.85a17.06,17.06,0,0,1,.08-2c.26-2.88.22-3.94,1.14-6l3.92-.77c-1.31,10.76-2.06,18,9.4,22.77-5-1-9.68-2.83-11.53-4.75C26.85,127.36,26.54,124.48,26.44,120.85Z"/><path class="cls-22" d="M31.25,112.08c8.08-1.6,25.8-5.17,25.35-5.7-.6-.68,22.53,4.32,22.53,4.32l-8.58,21.06L58,133.92c-2.92.72-6,1.65-8.17,1.74l-.79,0h0a39.1,39.1,0,0,1-8.35-.84C29.18,130.12,29.94,122.84,31.25,112.08Z"/><path d="M51.94,138.9c-1.85-.59-3.67-1-5.49-1.44s-3.65-.7-5.49-1a78.34,78.34,0,0,0-11.24-.72,17.53,17.53,0,0,1,5.66-1.38,26.63,26.63,0,0,1,5.85.12A24.75,24.75,0,0,1,46.91,136,15.83,15.83,0,0,1,51.94,138.9Z"/><path class="cls-23" d="M35.13,124.78a12.55,12.55,0,0,0,11,9.72h0A13,13,0,0,0,54,132.84h0l0,0a12.47,12.47,0,0,0,3.81-3.44s0,0,0-.06.11-.15.17-.23l.33-.5a12.26,12.26,0,0,0-.75-14h0c-.15-.2-.31-.39-.48-.58a11.81,11.81,0,0,0-2-1.79h0c-.78,0-1.58.06-2.39.06-2.54,0-9.09.12-13.19.22A12.73,12.73,0,0,0,37.2,115a8,8,0,0,0-.45.68,10.12,10.12,0,0,0-.65,1.16,12,12,0,0,0-1.25,5.94A13.44,13.44,0,0,0,35.13,124.78Z"/><path class="cls-10" d="M58.3,133.89c-2.92.71-5.95,1.65-8.17,1.74l-.79,0h0c-7.44.13-17-2.61-19.87-5.59-2.6-2.71-2.91-5.58-3-9.21a17.06,17.06,0,0,1,.08-2c.26-2.88.37-4.79,1.29-6.84,0,0,29.71-4.94,29.12-5.62s22.54,4.32,22.54,4.32L70.9,131.73Z"/><path d="M40.89,123.22a6.43,6.43,0,1,0,5.71-7A6.38,6.38,0,0,0,40.89,123.22Z"/><path class="cls-24" d="M37.73,120.86a3.53,3.53,0,0,0,.25,1,3.85,3.85,0,0,0,4,2.38,3.34,3.34,0,0,0,.63-.12A3.81,3.81,0,0,0,45.43,120a3.72,3.72,0,0,0-.54-1.57,3.9,3.9,0,0,0-5.43-1.19A3.81,3.81,0,0,0,37.73,120.86Z"/><path class="cls-24" d="M43.88,129.67a2.27,2.27,0,1,0,2-2.46A2.25,2.25,0,0,0,43.88,129.67Z"/><path class="cls-25" d="M115.13,120.83c-1.13,1.49-1.09,3.42.08,4.32l4.69,3.58c1.18.9,3,.43,4.19-1.06h0c1.13-1.49,1.1-3.42-.08-4.32l-4.69-3.58c-1.18-.9-3-.42-4.19,1.06Z"/><path class="cls-25" d="M117.82,126.82a1.86,1.86,0,0,0,.35,2.61h0a1.86,1.86,0,0,0,2.61-.35l2-2.59a1.86,1.86,0,0,0-.35-2.61h0a1.86,1.86,0,0,0-2.61.35Z"/><path class="cls-25" d="M114.86,124.56a1.87,1.87,0,0,0,.35,2.61h0a1.86,1.86,0,0,0,2.61-.35l2-2.59a1.86,1.86,0,0,0-.35-2.61h0a1.86,1.86,0,0,0-2.61.35Z"/><path class="cls-25" d="M136.39,111.74c1.13-1.48,1.09-3.42-.08-4.32l-4.69-3.58c-1.18-.9-3.05-.42-4.19,1.06h0c-1.13,1.49-1.1,3.42.08,4.32l4.69,3.58c1.18.9,3.05.43,4.19-1.06Z"/><path class="cls-25" d="M133.7,105.75a1.86,1.86,0,0,0-.35-2.61h0a1.86,1.86,0,0,0-2.61.35l-2,2.59a1.86,1.86,0,0,0,.35,2.61h0a1.86,1.86,0,0,0,2.61-.35Z"/><path class="cls-25" d="M136.66,108a1.86,1.86,0,0,0-.35-2.61h0a1.85,1.85,0,0,0-2.6.35l-2,2.59a1.86,1.86,0,0,0,.35,2.61h0a1.85,1.85,0,0,0,2.6-.35Z"/><path class="cls-25" d="M130.16,126.79c1.49,1.13,3.42,1.1,4.32-.08l3.58-4.69c.9-1.18.43-3-1.06-4.18h0c-1.49-1.13-3.42-1.1-4.32.08l-3.58,4.69c-.9,1.17-.42,3,1.06,4.18Z"/><path class="cls-25" d="M136.15,124.11a1.86,1.86,0,0,0,2.61-.35h0a1.86,1.86,0,0,0-.35-2.61l-2.59-2a1.86,1.86,0,0,0-2.61.35h0a1.87,1.87,0,0,0,.35,2.61Z"/><path class="cls-25" d="M133.89,127.06a1.86,1.86,0,0,0,2.61-.35h0a1.86,1.86,0,0,0-.35-2.61l-2.59-2a1.86,1.86,0,0,0-2.61.35h0a1.85,1.85,0,0,0,.35,2.6Z"/><path class="cls-25" d="M121,105.77c-1.49-1.13-3.42-1.09-4.32.08l-3.58,4.69c-.9,1.18-.43,3,1.06,4.18h0c1.49,1.13,3.42,1.1,4.32-.08l3.58-4.69c.9-1.17.43-3-1.06-4.18Z"/><path class="cls-25" d="M115,108.45a1.85,1.85,0,0,0-2.6.35h0a1.84,1.84,0,0,0,.35,2.6l2.59,2A1.86,1.86,0,0,0,118,113h0a1.86,1.86,0,0,0-.35-2.61Z"/><path class="cls-25" d="M117.29,105.5a1.85,1.85,0,0,0-2.6.35h0a1.86,1.86,0,0,0,.35,2.61l2.59,2a1.85,1.85,0,0,0,2.6-.35h0a1.86,1.86,0,0,0-.35-2.61Z"/><path class="cls-26" d="M114.21,117.43a11.51,11.51,0,1,0,10.37-12.58A11.5,11.5,0,0,0,114.21,117.43Z"/><path class="cls-27" d="M117.31,117.14a8.4,8.4,0,1,0,7.56-9.17A8.39,8.39,0,0,0,117.31,117.14Z"/><path class="cls-28" d="M118.75,117a6.85,6.85,0,1,0,6.17-7.49A6.85,6.85,0,0,0,118.75,117Z"/><path class="cls-8" d="M122.58,107.48a21.35,21.35,0,0,0-2.27,1.56,11.74,11.74,0,0,0-1.74,1.79A11.56,11.56,0,0,0,117.3,113a16.82,16.82,0,0,0-.93,2.56,6.92,6.92,0,0,1,1.48-5.25A8,8,0,0,1,122.58,107.48Z"/><path class="cls-7" d="M86.22,194.62h.12a62.28,62.28,0,0,1,5,8.82A61.7,61.7,0,0,0,86.22,194.62Z"/><path class="cls-29" d="M107.26,143.1l.61-.08c.21.33.4.68.59,1C108.09,143.73,107.68,143.41,107.26,143.1Z"/><path class="cls-29" d="M93.92,200.27c7.41,16.37.78,33.36-10,45.48-6.24.14-13.18-.16-18-2.62-7.77-2.82-15.53-12.51-27.57-28.19-9.44-12.29-22.13-20.13-27.76-35.44-3.16-8.59-4.93-35.75,15.15-33.21,5.4.68,12.28,5.84,12.44,11.82,5-8.48,10.09-7.47,13.64-7.48l2,0a13.18,13.18,0,0,0-2.12,8.14c.47,5.59,4.54,8.24,11.05,11.21,1.12-1.43,4-3.36,7-2.09,3.83,1.66,7.39,4.21,7.52,6.76a4.57,4.57,0,0,0,4.1,2.11c3.76,0,7.74-3,7.74-3-.61-2.9-.78-7.2,5-8.83,4.08-1.15,5.91.84,7.69,2.22,3.58-2.3,7.5-3.84,9.61-6.62-.13,10.48-2.79,21.45-5.29,25.15,4.36-1.13,17.9-5.31,16.85-4.37-6.27,5.57-19,14.82-31.95,16.55"/><path class="cls-30" d="M123.69,181.44c-5.09,8.67-19.89,15.13-32.9,16.68-.15-.22,3-1.47,2.85-1.69a43.74,43.74,0,0,0,27.23-14.75c.92-1.07-10.37,2.83-14.73,4C110.5,184.52,124.41,180.23,123.69,181.44Z"/><path class="cls-10" d="M53.85,150.62c4.33-7,14.75-12.5,27.29-13.55,10.53-.88,20.1,1.57,26.12,6-7.12.9-15.51,3.81-19.84,4.58A203,203,0,0,1,53.85,150.62Z"/><path class="cls-30" d="M53.86,150.71a201,201,0,0,0,33.58-2.93c4.33-.77,12.71-3.69,19.84-4.59q.63.47,1.2,1a27.64,27.64,0,0,1,2.64,9.61,27.81,27.81,0,0,0-2.65-9.7c-.19-.36-.39-.7-.59-1,3.65-.41,6.92-.24,9.07,1.09,2.72,1.82,3.73,6.77,3.47,9.92-.16,2.3-1.37,5.29.76,7.16,2.72,3.71,10.95,1.2,13.08,6.07,1.78,2.71-.67,4,2.71,6,6.56,3.83.81,4-.21,8.6-.5,2.27,4.15,3.11,5.52,3.87a4.28,4.28,0,0,1,2.37,2.71c.38,1.42,6.48,23.35,13.16,17.8-26.75,30.57-42.16,36.11-66.45,39.25-16.11,2.08-22.78-2.39-25.46-2.33,19.54-.23,29.76-22.3,26.93-39.87-.5-3.1,2.45-3.08.43-6.1a48.85,48.85,0,0,0,30.43-15.71c.93-1.07-20.87,4.71-25.22,5.84,10-4.9,12.81-16.22,13-26.68-2.12,2.78-6.55,5.92-10.38,8-1.78-1.38-3.64-4.14-7.66-2.81-3.16,1.05-3.86,4.58-3.68,7.71,0,0-4.58,3.35-8.34,3.37a23,23,0,0,1-8.16-1.56c0-2.37-1.43-6.13-4.73-7.42-2-.8-4.58.77-5.69,2.2-6.51-3-11.63-4.72-12-13C50.67,154.21,52.27,153.27,53.86,150.71Z"/><path class="cls-8" d="M124.14,182.71c-4.58,4.26-19.06,11.17-27.69,12.87-2.81.55-7.5,2.65-10,2.82-14.63,1-28.79-3.33-46.09-12.5C76.66,217.58,106.42,202.7,124.14,182.71Z"/><path class="cls-10" d="M10.58,179.5c-3.16-8.59-4.93-35.75,15.15-33.21,5.4.68,12.28,5.84,12.44,11.82,5-8.48,10.09-7.47,13.64-7.48a204.16,204.16,0,0,0,35.61-2.95c6.7-1.19,23.1-7.54,29.53-3.57,2.72,1.82,3.73,6.77,3.47,9.92-.16,2.3-1.37,5.29.76,7.16,2.72,3.71,10.95,1.2,13.08,6.07,1.78,2.71-.67,4,2.71,6,6.56,3.83.81,4-.21,8.6-.5,2.27,4.15,3.11,5.52,3.87a4.28,4.28,0,0,1,2.37,2.71c.38,1.42,6.69,23.18,13.38,17.63-26.53,29.83-42.19,38.46-66.66,39.41-7.34.29-18.55,1.18-25.46-2.33-7.77-2.82-15.53-12.51-27.57-28.19C28.91,202.65,16.21,194.81,10.58,179.5Z"/><path class="cls-31" d="M81.39,169.57c.56,0-3.52,8.56-.87,14.26"/><path class="cls-32" d="M86.65,189.87l4.49-1.23c-3.79.46-4.82-5-10.92-4.82-5.36.05-5.12,6-9.34,5.45"/><path d="M132.24,174.09a20.05,20.05,0,0,1-4.88,4.37c-1.82,1.18-3.7,2.27-5.61,3.29A91.14,91.14,0,0,1,109.88,187a99.27,99.27,0,0,1-51.27,3.21,69,69,0,0,1-12.39-3.88,41.14,41.14,0,0,1-11.13-6.74l.79-.83a30.72,30.72,0,0,0,5.21,3.44,52.11,52.11,0,0,0,5.74,2.62A66.49,66.49,0,0,0,59,188.15a98.65,98.65,0,0,0,25.23.84,95.52,95.52,0,0,0,24.83-4.33,87.24,87.24,0,0,0,11.65-4.89c3.79-1.88,7.24-4.26,11-6.27Z"/><path d="M36.74,178.82c.5.93-1,2.88.08,4.72a15.8,15.8,0,0,0,3.09,3.77c-1.06-.4-4.53-3.88-4.61-5.68s-.12-1.58-.12-1.58l-1,.08.41-1s-2.55-2.24-2.16-2.69c.2-.26,2,.86,2.81,1.38A12.89,12.89,0,0,1,36.74,178.82Z"/><path d="M129,180.29c-.2.76-6.17,7.34-6.33,7.82-.34,1,8-4.49,8.31-9.37a1.82,1.82,0,0,1,1.49-.28,10.71,10.71,0,0,0-.88-1.84c-.4-1.49,1.15-2.8,1.15-2.8s2.64-3.84,1.8-3.22a37,37,0,0,0-3.24,1.89c-.86.76-1.49.74-2.17,1.65a3.51,3.51,0,0,0-.08,2.34A9.59,9.59,0,0,1,129,180.29Z"/><path class="cls-33" d="M67.12,197.47a58.44,58.44,0,0,0,6.59,1c3.12.27,5.37.37,6.94.36s4.4-.37,6.54-.58A74.56,74.56,0,0,0,95,196.92s-4.58,3.3-4.34,4.16c-.59.26-1.52.62-2.13.87a14.84,14.84,0,0,0-2.27-1.08L84,205.26a7.47,7.47,0,0,1-3.3.09A63.27,63.27,0,0,0,73.9,200l-.37,1.27s-1.38-.14-2-.26A41.6,41.6,0,0,0,67.12,197.47Z"/><path class="cls-30" d="M19.85,165.24s-7.25-7.1-8.37-1.54c-.54,2.68,1.4,3.13,3.55,2.88A21,21,0,0,0,19.85,165.24Z"/><path class="cls-30" d="M17.39,170.41s-4.93-4.49-5.52-.85c-.29,1.76,1,2,2.4,1.81A13.27,13.27,0,0,0,17.39,170.41Z"/><path class="cls-30" d="M17.51,155.59s-1.79-3.59-2.94-1.65c-.55.94.12,1.35.95,1.54A8.39,8.39,0,0,0,17.51,155.59Z"/><path class="cls-30" d="M17.86,152.85s-.46-2.12-1.32-1.24c-.41.43-.12.73.3.93A4.46,4.46,0,0,0,17.86,152.85Z"/><path class="cls-30" d="M18.21,159.32s-4.55-5.09-5.55-1.41c-.49,1.78.79,2.17,2.25,2.09A14.17,14.17,0,0,0,18.21,159.32Z"/><path class="cls-14" d="M67.56,121.14A26.29,26.29,0,0,1,74.94,111a15.19,15.19,0,0,0-6.79,4.67L57.1,114l15.17-8.21,12.47,2.81,1,44.37L58,154.3c5.47-26.79,13.49-33.93,19-37.45C71,119.33,68.82,120.36,67.56,121.14Z"/><path class="cls-34" d="M51.61,154.59l.25-4.84,2.58-8.1,1.05-1.82a50.68,50.68,0,0,0-3.12,14.72Z"/><path class="cls-34" d="M58.75,134.2l1.88-3.27,4.72-5.78h0C65.58,129.38,62.17,130,58.75,134.2Z"/><path class="cls-34" d="M58.75,134.2l-3.25,5.63A21.83,21.83,0,0,1,58.75,134.2Z"/><path class="cls-34" d="M65.72,120.91l-.15,4-.21.26a13.65,13.65,0,0,1,2.79-9.54l.52.35Z"/><path class="cls-15" d="M55.5,139.83l3.25-5.63c3.42-4.25,6.83-4.81,6.61-9h0l.21-.26.15-4,3-5-7.19-1c1.78-2.22,10.89-3.07,13.46-4-3.06,2.88-3.62,4.14-6.22,9A19.19,19.19,0,0,1,77,116.84c-11.29,11-14.07,22.14-19,37.45l-5.6.27A50.35,50.35,0,0,1,55.5,139.83Z"/><path d="M64.21,125.06a17.26,17.26,0,0,1,.1-2.72,17.85,17.85,0,0,1,.47-2.61,14.61,14.61,0,0,1,.91-2.52,14.36,14.36,0,0,1,1.4-2.31l.74,1.59-4-.29-2-.15a16.7,16.7,0,0,1-2.08-.35c-2.63-.58-5.26-1.11-7.9-1.65l.21-1,4,.57c1.33.18,2.65.42,4,.62a24,24,0,0,0,3.92.24l4,.09,1.68,0-.95,1.52a12.45,12.45,0,0,0-1.07,2,12.19,12.19,0,0,0-.69,2.17,14.48,14.48,0,0,0-.39,2.28,16.46,16.46,0,0,0-.13,2.3Z"/><path d="M50.6,153.53a13.94,13.94,0,0,1-.06-1.51c0-.46,0-.91.08-1.35a25,25,0,0,1,.39-2.62,32.42,32.42,0,0,1,1.43-5A47.78,47.78,0,0,1,57.06,134a61.76,61.76,0,0,1,6.18-7.91,35.41,35.41,0,0,1,3.82-3.31,16.21,16.21,0,0,1,4.4-2.43A11.87,11.87,0,0,0,69.61,122c-.57.58-1.12,1.18-1.64,1.79a47,47,0,0,0-2.91,3.86,78,78,0,0,0-5.33,8,48.39,48.39,0,0,0-4,8.6,31.23,31.23,0,0,0-1.17,4.49c-.13.75-.23,1.51-.29,2.25,0,.37,0,.74,0,1.1a8.2,8.2,0,0,0,0,.95Z"/><path class="cls-35" d="M18.83,116.74c-1.59-1.12-2.7-10-1.31-12.23,8.27-13.18,24.18-9.12,34.92-8.87,5.91.14,14.63-.43,19-.85,1.67-.16,1.26,9.22-4.41,14.48-6.31,5.86-28,3.73-39,2.29-.71-.09-1.64.69-2.22.7C19.94,112.34,19.78,117.42,18.83,116.74Z"/><path class="cls-36" d="M18.88,109c-.6-2.56,3.12-8.68,8.27-10.72,8.11-3.21,13.21-1.22,24-.69,8.43.42,14.6-.83,18.94-1.18-1.41,1.5-4.9,2.38-11,3.87-8.78,2.14-23.28-2.3-33.2,2.5A17.57,17.57,0,0,0,18.88,109Z"/><path class="cls-37" d="M18.6,115.66c-1.18-1-3.18-7.16-.34-12.39,7.27-13.38,23.43-7.47,34.18-7.63,5.91-.09,14.63-.43,19-.85,1.67-.16,1.26,9.22-4.41,14.48-6.31,5.86-25.07,3.55-36.13,2.73a49.83,49.83,0,0,0-5.09.26C21.2,113,19.49,116.39,18.6,115.66Z"/><path class="cls-38" d="M74.54,171.55c-.13-2.4-1.94-6.88-5.81-7.56a6.93,6.93,0,0,0-6.61,2.52c-6.14-2.8-10-5.3-10.42-10.57-.83-9.94,11.58-19.1,27.73-20.45s29.92,5.61,30.75,15.55c.46,5.46-2.9,8.94-8.86,12.76-1.68-1.3-5.12-3.35-8.19-2.71-6.79,1.43-7.82,7.08-7.24,9.82a11.83,11.83,0,0,1-6.25,2A10.88,10.88,0,0,1,74.54,171.55Z"/><path class="cls-36" d="M105.24,144.26c2.17,2.44,8,10.64-3.59,17.44-7.19-3.28-10-2.26-10.92-1.44,1.71-3.24,7.11-2.95,10.53-2.7C108.07,152.65,105.24,144.26,105.24,144.26Z"/><path class="cls-36" d="M85.17,137.66C72,135.09,45.05,145.54,57,162.13,55.78,156.65,56.93,141.88,85.17,137.66Z"/><path class="cls-39" d="M57.6,149.62c.72,1.38,3.32-1,6.79-2.82s6.47-2.28,5.75-3.67-4.1-1-7.57.74S56.89,148.24,57.6,149.62Z"/></g></g></g></svg>